<?xml version="1.0" encoding="utf-8"?>
<!-- Generator: Adobe Illustrator 16.0.0, SVG Export Plug-In . SVG Version: 6.00 Build 0)  -->
<!DOCTYPE svg PUBLIC "-//W3C//DTD SVG 1.1//EN" "http://www.w3.org/Graphics/SVG/1.1/DTD/svg11.dtd">
<svg version="1.1" xmlns="http://www.w3.org/2000/svg" xmlns:xlink="http://www.w3.org/1999/xlink" x="0px" y="0px" width="1160px"
	 height="240px" viewBox="0 0 1160 240" enable-background="new 0 0 1160 240" xml:space="preserve">
<g id="svg2" xmlns:inkscape="http://www.inkscape.org/namespaces/inkscape" xmlns:sodipodi="http://sodipodi.sourceforge.net/DTD/sodipodi-0.dtd" xmlns:svg="http://www.w3.org/2000/svg" xmlns:dc="http://purl.org/dc/elements/1.1/" xmlns:cc="http://creativecommons.org/ns#" xmlns:rdf="http://www.w3.org/1999/02/22-rdf-syntax-ns#" inkscape:export-ydpi="90" inkscape:version="0.48.2 r9819" sodipodi:docname="sprite.svg" inkscape:export-xdpi="90" inkscape:export-filename="./sprite.png">
	
		<sodipodi:namedview  id="base" inkscape:pageopacity="0.0" inkscape:cx="555.61308" pagecolor="#ffffff" showguides="true" inkscape:cy="133.43686" borderopacity="1.0" showgrid="false" bordercolor="#666666" inkscape:zoom="1" inkscape:document-units="px" inkscape:guide-bbox="true" inkscape:current-layer="layer5" inkscape:pageshadow="2">
		<inkscape:grid  type="xygrid" id="grid2985" enabled="true" visible="true" empspacing="5" snapvisiblegridlinesonly="true">
			</inkscape:grid>
	</sodipodi:namedview>
	<g id="layer2" transform="translate(0,140)" sodipodi:insensitive="true" inkscape:label="BG" inkscape:groupmode="layer">
		<path id="path4202" sodipodi:cx="50" sodipodi:type="arc" sodipodi:ry="65" sodipodi:rx="65" sodipodi:cy="50" fill="#222222" d="
			M770,40c0,33.137-26.863,60-60,60s-60-26.863-60-60s26.863-60,60-60S770,6.863,770,40z"/>
		
			<path id="path4199" sodipodi:cx="190" sodipodi:type="arc" sodipodi:ry="40" sodipodi:rx="40" sodipodi:cy="60" fill="#FF9270" d="
			M620-80c0,22.091-17.908,40-40,40s-40-17.909-40-40s17.908-40,40-40S620-102.091,620-80z"/>
		<path id="path4172" sodipodi:cx="50" sodipodi:type="arc" sodipodi:ry="65" sodipodi:rx="65" sodipodi:cy="50" fill="#222222" d="
			M640,40c0,33.137-26.863,60-60,60s-60-26.863-60-60s26.863-60,60-60S640,6.863,640,40z"/>
		<path id="path4008" sodipodi:cx="50" sodipodi:type="arc" sodipodi:ry="65" sodipodi:rx="65" sodipodi:cy="50" fill="#333333" d="
			M120,40c0,33.137-26.863,60-60,60S0,73.137,0,40s26.863-60,60-60S120,6.863,120,40z"/>
		<path id="path4045" sodipodi:cx="50" sodipodi:type="arc" sodipodi:ry="65" sodipodi:rx="65" sodipodi:cy="50" fill="#222222" d="
			M250,40c0,33.137-26.863,60-60,60s-60-26.863-60-60s26.863-60,60-60S250,6.863,250,40z"/>
		
			<path id="path4135" sodipodi:cx="190" sodipodi:type="arc" sodipodi:ry="40" sodipodi:rx="40" sodipodi:cy="60" fill="#FF9270" d="
			M230-80c0,22.091-17.909,40-40,40s-40-17.909-40-40s17.909-40,40-40S230-102.091,230-80z"/>
		<path id="path4137" sodipodi:cx="50" sodipodi:type="arc" sodipodi:ry="65" sodipodi:rx="65" sodipodi:cy="50" fill="#222222" d="
			M380,40c0,33.137-26.863,60-60,60s-60-26.863-60-60s26.863-60,60-60S380,6.863,380,40z"/>
		
			<path id="path4144" sodipodi:cx="190" sodipodi:type="arc" sodipodi:ry="40" sodipodi:rx="40" sodipodi:cy="60" fill="#FF9270" d="
			M360-80c0,22.091-17.909,40-40,40s-40-17.909-40-40s17.909-40,40-40S360-102.091,360-80z"/>
		<path id="path4153" sodipodi:cx="50" sodipodi:type="arc" sodipodi:ry="65" sodipodi:rx="65" sodipodi:cy="50" fill="#222222" d="
			M510,40c0,33.137-26.863,60-60,60s-60-26.863-60-60s26.863-60,60-60S510,6.863,510,40z"/>
		
			<path id="path4163" sodipodi:cx="190" sodipodi:type="arc" sodipodi:ry="40" sodipodi:rx="40" sodipodi:cy="60" fill="#FF9270" d="
			M490-80c0,22.091-17.908,40-40,40s-40-17.909-40-40s17.908-40,40-40S490-102.091,490-80z"/>
		
			<path id="path4299" sodipodi:cx="190" sodipodi:type="arc" sodipodi:ry="40" sodipodi:rx="40" sodipodi:cy="60" fill="#FF9270" d="
			M750-80c0,22.091-17.908,40-40,40s-40-17.909-40-40s17.908-40,40-40S750-102.091,750-80z"/>
		<path id="path4308" sodipodi:cx="50" sodipodi:type="arc" sodipodi:ry="65" sodipodi:rx="65" sodipodi:cy="50" fill="#222222" d="
			M900,40c0,33.137-26.863,60-60,60s-60-26.863-60-60s26.863-60,60-60S900,6.863,900,40z"/>
		
			<path id="path4310" sodipodi:cx="190" sodipodi:type="arc" sodipodi:ry="40" sodipodi:rx="40" sodipodi:cy="60" fill="#FF9270" d="
			M880-80c0,22.091-17.908,40-40,40s-40-17.909-40-40s17.908-40,40-40S880-102.091,880-80z"/>
		<path id="path4359" sodipodi:cx="50" sodipodi:type="arc" sodipodi:ry="65" sodipodi:rx="65" sodipodi:cy="50" fill="#222222" d="
			M1030,40c0,33.137-26.863,60-60,60s-60-26.863-60-60s26.863-60,60-60S1030,6.863,1030,40z"/>
		
			<path id="path4361" sodipodi:cx="190" sodipodi:type="arc" sodipodi:ry="40" sodipodi:rx="40" sodipodi:cy="60" fill="#FF9270" d="
			M1010-80c0,22.091-17.908,40-40,40s-40-17.909-40-40s17.908-40,40-40S1010-102.091,1010-80z"/>
		<path id="path4456" sodipodi:cx="50" sodipodi:type="arc" sodipodi:ry="65" sodipodi:rx="65" sodipodi:cy="50" fill="#222222" d="
			M1160,40c0,33.137-26.863,60-60,60s-60-26.863-60-60s26.863-60,60-60S1160,6.863,1160,40z"/>
		
			<path id="path4489" sodipodi:cx="190" sodipodi:type="arc" sodipodi:ry="40" sodipodi:rx="40" sodipodi:cy="60" fill="#FF9270" d="
			M1140-80c0,22.091-17.909,40-40,40c-22.092,0-40-17.909-40-40s17.908-40,40-40C1122.091-120,1140-102.091,1140-80z"/>
	</g>
	
		<g id="layer9" transform="translate(0,140)" sodipodi:insensitive="true" inkscape:label="Charing Cross" inkscape:groupmode="layer">
		<path id="path3471" inkscape:connector-curvature="0" fill="#FFFFFF" d="M1098.438-9.969c-0.47,0.015-0.939,0.035-1.406,0.062
			l-0.094,4.812h-0.312l-1.188,1.156l0.375-5.875c-0.499,0.041-1.006,0.069-1.5,0.125l-0.095,6.906l-1.156,1.125L1094,1l2.5-1.5
			l1.938-0.281l-0.656,2.844l-1.281-0.156l-2.75,4.75l-1.562-1.156l-0.875,0.062l1.094-2.344l-1.844-2.094l1.812-10.562
			c-23.334,3.565-41.33,23.285-42.312,47.375l2.844,8.188l1.781-0.75l1.844,2.625l2.688-0.562l-1.281-3.469l3.375-1.438l-0.375-5.75
			l3.656,1.938l0.281-31.281l4.188-3.688l-0.25-1.312l1.562-0.531l0.25,2.375l4.469,3.938v18.094l7.062-4.719l5.125,4l0.406-16.062
			l2.344-2.188v2.625l3.906-0.25l-0.656,22.875l1.781-0.219l0.469-23.062l4.562-4.656l-0.312-1.875l1.438,2.156l1.156-0.875
			l-0.844-4.156L1099.906-1l3.625-0.531l-3.906-0.938l2.969-0.156l0.219,0.375v-0.406l2.781-0.156l0.219-2.406l-3.031,0.031
			l-0.062-4.75c-0.468-0.025-0.937-0.02-1.406-0.031l0.281,4.812l-3.469,0.031L1098.438-9.969L1098.438-9.969z M1107.125-9.5
			l0.469,2.25l-0.25,7.062l1.812,6.812l3.688,2.906l1.562,18.094l3.406,8.125l6.031-1.062l-0.531-22.281l1.594-1.062v2.625
			l15.719-2.875l-0.031-0.281c-3.039-4.219-6.728-7.941-10.906-11.031l-1.969,0.281l-3.438,1.375l4.031-2.656
			C1122.114-5.483,1114.911-8.391,1107.125-9.5z M1104.25,8.75l0.438,23.344l1.812,0.219l-0.688-23.344L1104.25,8.75z M1091.906,11
			l-2.75,1.156l-0.562,20.094l1.25-0.219l1.031-6.219l0.938-0.094l0.438-6.219l-1.469,0.125l0.562-3.344l0.469-0.344L1091.906,11
			L1091.906,11z M1101.75,11.812l0.688,20.656l0.656-20.656H1101.75z M1096.656,12.094l0.688,20.656L1098,12.094H1096.656
			L1096.656,12.094z M1109.844,19.875l-0.438,6.594l0.875-3.562L1109.844,19.875z M1088.156,34.531l-1.469,1.906l0.062,1.531
			l1.281,0.625L1084.655,49l-0.75-1.719l-0.906,2.25l0.156,30.062h1.688L1085,52.469l3.094-8.969l1.469,5.688l1.531-2.719
			l-2.063-7.875l0.594-0.344l0.188-2.219L1088.156,34.531L1088.156,34.531z M1112.938,34.75l-2.5,1.594l2.5,0.188V34.75z
			 M1099.031,34.844l-1,1.469l-1,0.094l-0.281,1.094l1.656,0.656l-5.438,7.812l0.469,1l4.781-5.969l-4.312,6.812l0.438,0.906
			l5.062-7.156l3.688,6.875l1.656-1.906l-4.5-8.094l1.281-1.219l-0.188-1h-1L1099.031,34.844L1099.031,34.844z M1080.938,34.969
			l-3.469,6.438l1.344-0.406l2-4.969L1080.938,34.969z M1111.312,38.156l-3.406,6.656l0.375,2.875L1111.312,38.156z
			 M1067.656,42.625l-1.062,1.75l1.594-0.281L1067.656,42.625L1067.656,42.625z M1091.688,47.281l-1.344,2.25l0.219,30.062h2.469
			l0.25-29.844L1091.688,47.281z M1105.625,47.281l-1.344,2.25l0.219,30.062h2.469l0.219-29.844L1105.625,47.281z M1114.906,47.438
			l-0.938,2.25l0.156,30.094h1.719L1116,49.906L1114.906,47.438L1114.906,47.438z M1096.906,51.031l-0.625,1.031l-0.469-0.719
			l-1.625-0.156l1.344,2.031l-0.594,0.938l-0.312-0.531v1.031L1094.406,55l-0.219,2.438l0.625-0.875l0.469,1l-0.812,1.281
			l0.375,1.688l1.094-1.625l0.688,1.406l0.719-2.062l-0.438-0.75l0.781-1.094l0.625,0.938l-0.156,0.25l0.406,0.094l0.125,0.188
			l0.312-0.094l0.344,0.094l0.125-0.188l0.375-0.094l-0.156-0.25l0.656-0.969l0.75,1.125l-0.438,0.75l0.75,2.062l0.656-1.375
			l1.094,1.594l0.375-1.688l-0.812-1.281l0.469-1l0.625,0.875L1103.594,55l-0.219-0.344v-1.031l-0.312,0.531l-0.594-0.938
			l1.344-2.031l-1.594,0.156l-0.469,0.719l-0.656-1.031h-1.75l0.219,0.312h-0.219l-0.344,0.5l-0.312-0.5h-0.219l0.219-0.312
			H1096.906z M1089.688,51.188l-4.031,1.625v11.031l1.312-1.531l0.156-5.531l0.75,4.406l0.875-0.719l0.281-3.094l0.656,4.562V51.188
			L1089.688,51.188z M1055.188,52.156l-0.531,0.938l9.531,5.625l0.656-0.781L1055.188,52.156z M1097.688,52.469l0.469,0.719
			l-0.594,0.875l-0.469-0.75L1097.688,52.469z M1096.344,54.375l0.5,0.781l-0.688,1.094l-0.5-0.875L1096.344,54.375z M1099,54.438
			l0.625,0.906L1099,56.281l-0.594-0.938L1099,54.438z M1101.312,62.219l-2.281,2l-2.188-1.625l-2.219,2.562l2.438-1.531l1.25,1.469
			l-0.062,10.969l0.781,2.719l0.906-2.344l-0.156-11.188l1.688-1.688l2.125,2.031L1101.312,62.219L1101.312,62.219z M1067.406,64.5
			l-1.844,3.531l2.344-2.188L1067.406,64.5z M1086.438,76.219l-0.094,4.062l-3.219,1.562V84.5l-1.094,1.469v0.688
			c2.549,0.982,5.206,1.756,7.938,2.312l0.812-2.438h6.875l-0.095-2.312l-6.531,0.094l7.844-1l-0.281-1.75l-9.375-1.125v-4.219
			H1086.438L1086.438,76.219z M1110.781,88.812l-13.156,0.156l2.562,1.031c2.341-0.01,4.652-0.18,6.906-0.5l2.969-0.531l0.375-0.094
			C1110.551,88.851,1110.668,88.838,1110.781,88.812L1110.781,88.812z"/>
		<path id="path4484" inkscape:connector-curvature="0" fill="#FFFFFF" d="M1100-110c-0.439,0-0.878,0.028-1.312,0.047l-0.352,1.5
			l-0.961-0.117l-2.062,3.562l-1.172-0.867l-0.656,0.047l0.82-1.758l-1.383-1.57c-4.309,1.042-8.243,3.017-11.602,5.695v13.195
			l5.297-3.539l3.844,3l0.305-12.047l1.758-1.641v1.969l2.93-0.188l-0.492,17.156l1.336-0.164l0.352-17.297l3.422-3.492
			l-0.234-1.406l1.078,1.617l0.867-0.656l-0.609-3C1100.783-109.968,1100.393-110,1100-110L1100-110z M1096.367-109.766
			c-0.337,0.041-0.675,0.065-1.008,0.117l0.141,0.398L1096.367-109.766L1096.367-109.766z M1105.695-109.461l1.172,4.43l2.766,2.18
			l1.172,13.57l2.555,6.094l4.523-0.797l-0.398-16.711l1.195-0.797v1.969l3.516-0.656
			C1117.922-104.882,1112.187-108.213,1105.695-109.461L1105.695-109.461z M1103.188-103.438l0.328,17.508l1.359,0.164
			l-0.516-17.508L1103.188-103.438z M1093.93-101.75l-2.062,0.867l-0.422,15.07l0.938-0.164l0.773-4.664l0.703-0.07l0.328-4.664
			l-1.102,0.094l0.422-2.508l0.352-0.258L1093.93-101.75L1093.93-101.75z M1101.312-101.141l0.516,15.492l0.492-15.492H1101.312z
			 M1097.492-100.93l0.516,15.492l0.492-15.492H1097.492z M1107.383-95.094l-0.328,4.945l0.656-2.672L1107.383-95.094
			L1107.383-95.094z M1073.562-94.203C1071.284-89.974,1070-85.14,1070-80c0,0.765,0.037,1.523,0.094,2.273l0.891-0.375
			l-0.281-4.312l2.742,1.453L1073.562-94.203L1073.562-94.203z M1091.117-84.102l-1.102,1.43l0.047,1.148l0.961,0.469l-2.531,7.805
			l-0.562-1.289l-0.68,1.688l0.094,20.062c0.422,0.196,0.857,0.362,1.289,0.539l0.118-18.398l2.32-6.727l1.102,4.266l1.148-2.039
			l-1.547-5.906l0.445-0.258l0.141-1.664L1091.117-84.102L1091.117-84.102z M1109.703-83.938l-1.875,1.195l1.875,0.141V-83.938z
			 M1099.273-83.867l-0.75,1.102l-0.75,0.07l-0.211,0.82l1.242,0.492l-4.078,5.859l0.352,0.75l3.586-4.477l-3.234,5.109l0.328,0.68
			l3.797-5.367l2.766,5.156l1.242-1.43l-3.375-6.07l0.961-0.914l-0.141-0.75h-0.75L1099.273-83.867z M1085.703-83.773l-2.602,4.828
			l1.008-0.305l1.5-3.727L1085.703-83.773L1085.703-83.773z M1108.484-81.383l-2.555,4.992l0.281,2.156L1108.484-81.383z
			 M1075.742-78.031l-0.797,1.312l1.195-0.211L1075.742-78.031z M1093.766-74.539l-1.008,1.688l0.164,22.008
			c0.61,0.147,1.228,0.265,1.852,0.375l0.188-22.219L1093.766-74.539L1093.766-74.539z M1104.219-74.539l-1.008,1.688l0.164,22.547
			h0.82c0.347-0.048,0.688-0.104,1.031-0.164l0.164-22.219L1104.219-74.539L1104.219-74.539z M1111.18-74.422l-0.703,1.688
			l0.117,20.789c0.441-0.167,0.882-0.329,1.312-0.516L1112-72.57L1111.18-74.422L1111.18-74.422z M1097.68-71.727l-0.469,0.773
			l-0.352-0.539l-1.219-0.117l1.008,1.523l-0.445,0.703l-0.234-0.398v0.773l-0.164,0.258l-0.164,1.828l0.469-0.656l0.352,0.75
			l-0.609,0.961l0.281,1.266l0.82-1.219l0.516,1.055l0.539-1.547l-0.328-0.562l0.586-0.82l0.469,0.703l-0.117,0.188l0.305,0.07
			l0.095,0.141l0.234-0.07l0.258,0.07l0.094-0.141l0.281-0.07l-0.117-0.188l0.492-0.727l0.562,0.844l-0.328,0.562l0.562,1.547
			l0.492-1.031l0.82,1.195l0.281-1.266l-0.609-0.961l0.352-0.75l0.469,0.656l-0.164-1.828l-0.164-0.258v-0.773l-0.234,0.398
			l-0.445-0.703l1.008-1.523l-1.195,0.117l-0.352,0.539l-0.492-0.773h-1.312l0.164,0.234h-0.164l-0.258,0.375l-0.234-0.375h-0.164
			l0.164-0.234H1097.68L1097.68-71.727z M1092.266-71.609l-3.023,1.219v8.273l0.984-1.148l0.117-4.148l0.562,3.305l0.656-0.539
			l0.211-2.32l0.492,3.422V-71.609z M1098.266-70.648l0.352,0.539l-0.445,0.656l-0.352-0.562L1098.266-70.648z M1097.258-69.219
			l0.375,0.586l-0.516,0.82l-0.375-0.656L1097.258-69.219z M1099.25-69.172l0.469,0.68l-0.469,0.703l-0.445-0.703L1099.25-69.172z
			 M1072.977-66.945c0.12,0.247,0.249,0.483,0.375,0.727l0.281-0.328L1072.977-66.945z M1100.984-63.336l-1.711,1.5l-1.641-1.219
			l-1.664,1.922l1.828-1.148l0.938,1.102l-0.047,8.227l0.586,2.039l0.68-1.758l-0.117-8.391l1.266-1.266l1.594,1.523
			L1100.984-63.336L1100.984-63.336z M1089.828-52.836l-0.022,1.055c0.693,0.25,1.394,0.48,2.109,0.68v-1.734H1089.828
			L1089.828-52.836z"/>
	</g>
	
		<g id="layer8" transform="translate(0,140)" sodipodi:insensitive="true" inkscape:label="The Daily Telegraph" inkscape:groupmode="layer">
		<path id="path3408" inkscape:connector-curvature="0" fill="#FFFFFF" d="M984.281-5.156l-3.406,4.188l-8.656,4.188l-12.312,3.406
			l-9.438,6.031L942.062,25.5L940.5,36l-4.188,7.344l4.188,4.438l4.188-1.312l0.531-2.594l-5,2.094l-2.094-3.406l3.688-6.031
			l1.812-10.219l6.312-10.75l9.438-5.781l13.094-3.406l8.656-4.188L984.281-5.156z M987.125-4.812l-6.438,10.406l8.156-3.844
			l0.406-3.781l-2.562,1.312L987.125-4.812z M995.781-2.844l-2.5,4.094l-10.906,8.219L966.25,13L954,19.188l-5.188,7.719
			l-0.844,6.719l4.531-7.875l5.375-4.719l9.375-2.344l16.969-5.188l-14.938,3.344L969.125,16l15.406-3.844l1.188-2.031l5.875-5.031
			l-1.188,3.719l6.719-4.031l3.031-3.531l-1.844-0.156l0.25-2.125c-0.233-0.163-0.451-0.341-0.688-0.5l-1.25,0.094l-0.25-1.031
			C996.176-2.593,995.982-2.723,995.781-2.844L995.781-2.844z M1004.094,4.438L1000.75,8l-10.906,6.938l-14.281,3.344l-16.156,4.188
			l-8.375,7.969l-4.406,11.531l6.719-11.094l3.562-2.75l10.5-5.656l10.469-0.844L970.75,21l12.156-1.469l10.906-3.156l9.438-7.75
			L1004.094,4.438z M1007.344,7.469l-12.625,11.938l-14.625,4.031l-14.656,1.594l-8.844,5.25l-5.094,7.5l5.906-5.906l9.125-5.375
			l5.094-0.656l12.094,0.406l9.531-3.094l3.75-2l3.75-4.312l-2.812,0.938l0.125-0.656l3.906-0.812l7.5-6.844l-2.281,0.812
			L1007.344,7.469z M1011.531,12.125l-6.344,5.781l-7.344,7.125L984,28.281l-12.562-0.219l-11.469,4.594l-10.156,9.5l2.531,6.531
			l2.625,7.5L959,68.531l2.844,4.688l0.656,6.438l2,5.781v2.781l0.438,1.531C966.599,89.916,968.295,90,970,90
			c11.418,0,21.927-3.84,30.344-10.281l-0.906-2.906l1.188-0.562l0.875,2.594c3.553-2.885,6.696-6.258,9.344-10l-4.875,2.719
			l-1.188-0.969l6.594-3.438l0.781-0.281c2.074-3.249,3.776-6.766,5.062-10.469l-3.781,1.812l-4.844,1.281l-0.219-1.719l5.062-1.5
			l3.625-2.156l0.344,1.75C1019.076,50.886,1020,45.551,1020,40c0-5.064-0.757-9.956-2.156-14.562h-0.219l0.156-0.219
			c-0.183-0.593-0.39-1.167-0.594-1.75H1016l0.531-1.781c-0.194-0.493-0.416-0.983-0.625-1.469h-0.25l0.125-0.344
			c-0.4-0.91-0.829-1.807-1.281-2.688l-0.156,0.062l0.062-0.25c-0.592-1.141-1.231-2.257-1.906-3.344h-0.125l0.03-0.156
			C1012.116,13.037,1011.835,12.577,1011.531,12.125L1011.531,12.125z M1016.312,35.25l0.344,1.5l-6.25,3.656l-5.344,3.219
			l-0.875-1.719l5.469-2.375L1016.312,35.25z M997.406,35.469l-1.625,5.562l-1.125,0.5l2.438,7.281l-3.281,4.938l-1.375-0.406
			l1.375-3.781l-2.375-6.656l-0.125,0.062l-8.281-0.688l-4.469,0.469l-2.844,2.969l0.156-2.25l3-3.562l4.031-2.094l8.531,0.781
			l3.531-0.906L997.406,35.469z M1018.25,41.562l0.125,0.75l-5.594,3.125l-6.656,2.594l-0.219-2.062l6.656-1.719L1018.25,41.562z
			 M948.531,43.219l-1.281,3.594l4,8.594l4.406,13l1.469,0.406l-3.375-10.906L948.531,43.219z M988.938,44.25L986.562,47
			l-0.469,3.781l3.031,3.594l6.031,0.469l3.406-2l3.344-6.375l0.656,0.969l-2.5,8.438l-4.719,3.031l-7.188-0.469l0.688-3.594
			l-0.5-0.094l-0.656,3.031l-2.25-1.344l-2.938-5.469l1.5-5l3.219-1.531L988.938,44.25L988.938,44.25z M1017.719,47.469v2.375
			l-5.375,2.688l-4.625,1.5l-0.406-1.281L1013,50.5L1017.719,47.469z M944.781,47.562l-4.031,1.344l5.219,9.219l4.531,9.719
			l3.5-0.312l-3.344-9.75l-3.688,0.688l2.188-2.188L944.781,47.562z M979.688,52.938l0.844,2l-7.906,2.188l-10.062,4.844l-0.156-2.5
			l9.219-4.188L979.688,52.938z M1006,58.969l0.344,1.5l-7.75,5.812l-8.469,2.781l-0.656-1.188l8.281-3.219L1006,58.969z
			 M981.344,59.969l0.344,1.688L973.625,63l-8.531,3.844l-2.188-0.156l10.219-4.719L981.344,59.969z M983.219,64l0.812,1.5
			l-7.531,2.344l-1.531-1.156l0.344,2l-6.875,2.531l-1.844-1.344l8.062-3.688L983.219,64z M956.281,69.656l2.094,3.562l1.688,0.625
			l-1.906-3.125L956.281,69.656z M984.969,69.812l0.531,1.281L978.094,74l-0.531-1.406L984.969,69.812z M999.656,70.562l1.094,2.25
			l1.156-1.719l1.844,1.094l-1.938,3.969l-1.281-1.062l-2.375,0.844l-0.094,1.281l-3.219,0.125v-3h2.031l-0.531-2.469
			L999.656,70.562L999.656,70.562z M975.188,72.938l0.438,1.594l-5.156,2.25l-1.062-1.594L975.188,72.938z M993.5,75.875
			l0.125,1.406l-11.781,3.062l-12.219,4.812l-0.969-0.75l12.969-5.156L993.5,75.875L993.5,75.875z M958.594,75.938l1.875,5.031
			l2.938,4.406l-3.156-8.156L958.594,75.938z"/>
		<path id="path4448" inkscape:connector-curvature="0" fill="#FFFFFF" d="M975.578-109.484l-3.914,1.898l-9.234,2.555l-7.078,4.523
			l-6.305,9.633L947.875-83l-3.141,5.508l3.141,3.328l3.141-0.984l0.398-1.945l-3.75,1.57l-1.57-2.555l2.766-4.523l1.359-7.664
			l4.734-8.062l7.078-4.336l9.82-2.555l6.492-3.141l0.164-0.398C977.551-109.04,976.572-109.297,975.578-109.484z M979.633-108.406
			l-1.617,2.602l3.773-1.781C981.082-107.888,980.366-108.158,979.633-108.406z M984.062-106.508l-4.781,3.609l-12.094,2.648
			L958-95.609l-3.891,5.789l-0.633,5.039l3.398-5.906l4.031-3.539l7.031-1.758l12.727-3.891l-11.203,2.508L969.344-98l11.555-2.883
			l0.891-1.523l3.797-3.258C985.094-105.964,984.573-106.236,984.062-106.508z M985.961-105.406l-0.656,2.016l1.922-1.148
			C986.809-104.833,986.394-105.134,985.961-105.406z M990.203-102.172l-5.32,3.375l-10.711,2.508l-12.117,3.141l-6.281,5.977
			l-3.305,8.648l5.039-8.32l2.672-2.062l7.875-4.242l7.852-0.633l-5.344-0.469l9.117-1.102l8.18-2.367l3.75-3.07
			C991.149-101.268,990.694-101.725,990.203-102.172z M992.805-99.477l-4.266,4.031l-10.969,3.023l-10.992,1.195l-6.633,3.938
			l-3.82,5.625l4.43-4.43l6.844-4.031l3.82-0.492l9.07,0.305l7.148-2.32l2.812-1.5l2.812-3.234l-2.109,0.703l0.094-0.492l2.93-0.609
			l0.117-0.117C993.686-98.432,993.248-98.958,992.805-99.477L992.805-99.477z M995.547-95.75l-4.664,4.523L980.5-88.789
			l-9.422-0.164l-8.602,3.445l-7.617,7.125l1.898,4.898l1.969,5.625l3.023,9.258l2.133,3.516l0.469,4.547
			C966.182-50.19,968.068-50,970-50c10.014,0,18.879-4.905,24.328-12.445l-2.883,2.156l-6.352,2.086l-0.492-0.891l6.211-2.414
			l5.25-3.609c0.843-1.472,1.546-3.025,2.133-4.641l-0.211-0.68l0.516-0.211c0.454-1.386,0.806-2.822,1.055-4.289l-2.461,0.961
			l-0.164-1.547l2.812-0.727c0.134-1.069,0.217-2.156,0.234-3.258l-3.68,2.227l-0.656-1.289l4.102-1.781l0.234-0.164
			C999.882-86.095,998.289-91.311,995.547-95.75L995.547-95.75z M990.555-83.398l-1.219,4.172l-0.844,0.375l1.828,5.461
			l-2.461,3.703l-1.031-0.305l1.031-2.836l-1.781-4.992l-0.094,0.047l-6.211-0.516l-3.352,0.352l-2.133,2.227l0.117-1.688
			l2.25-2.672l3.023-1.57l6.398,0.586l2.648-0.68L990.555-83.398L990.555-83.398z M953.898-77.586l-0.961,2.695l3,6.445l3.305,9.75
			l1.102,0.305l-2.531-8.18L953.898-77.586z M984.203-76.812l-1.781,2.062l-0.352,2.836l2.273,2.695l4.523,0.352l2.555-1.5
			l2.508-4.781l0.492,0.727l-1.875,6.328l-3.539,2.273l-5.391-0.352l0.516-2.695l-0.375-0.07l-0.492,2.273l-1.688-1.008
			l-2.203-4.102l1.125-3.75l2.414-1.148L984.203-76.812z M951.086-74.328l-3.023,1.008l3.914,6.914l3.398,7.289L958-59.352
			l-2.508-7.312l-2.766,0.516l1.641-1.641L951.086-74.328z M977.266-70.297l0.633,1.5l-5.93,1.641l-7.547,3.633l-0.117-1.875
			l6.914-3.141L977.266-70.297z M978.508-65.023l0.258,1.266l-6.047,1.008l-6.398,2.883l-1.641-0.117l7.664-3.539L978.508-65.023z
			 M979.914-62l0.609,1.125l-5.648,1.758l-1.148-0.867l0.258,1.5l-5.156,1.898l-1.383-1.008l6.047-2.766L979.914-62z
			 M959.711-57.758l1.57,2.672l1.266,0.469l-1.43-2.344L959.711-57.758z M981.227-57.641l0.398,0.961l-5.555,2.18l-0.398-1.055
			L981.227-57.641z M973.891-55.297l0.328,1.195l-3.867,1.688l-0.797-1.195L973.891-55.297z M961.445-53.047l0.75,2.016
			c0.333,0.089,0.67,0.18,1.008,0.258l-0.516-1.312L961.445-53.047z"/>
	</g>
	
		<g id="layer7" transform="translate(0,140)" sodipodi:insensitive="true" inkscape:label="13 Caulfield Gardens" inkscape:groupmode="layer">
		<path id="path3346" inkscape:connector-curvature="0" fill="#FFFFFF" d="M840-10l-1.281,0.812L838.5-8.375l-1.25,0.438L836-9.844
			c-14.819,1.174-27.822,8.814-36.188,20.094l6.5-3.938l1.25,2.094l-1.031,1.469l-1.25-0.188l-1.906,1.469l4.844,8.594l2.5,0.219
			l0.219,0.625l-5.656,3.75v-1.031l0.812-2.531L800.656,12l-2.312,1.469l-0.219,0.812l-1.25,0.438
			c-2.944,5.016-5.045,10.596-6.094,16.531l9.344,14.969l2.844,4.5l23.062-13.062L804.094,52.5l11.781,18.625l6.281,12.062
			L824,81.094l4.438,0.781l1.312-3.406l3.688,1.562l2.594-3.938h5.25l1.594-3.656l4.438-0.781l0.531-2.875l4.469,1.031l2.344-4.469
			h4.188l1.594-3.906l6.812,0.5l0.5-3.656l3.938,1.062l2.625-3.688L878,56.188l0.781-3.156l4.719-0.25l1.844-4.719l3.719,1.531
			C889.667,46.484,890,43.285,890,40c0-6.277-1.169-12.277-3.281-17.812l-1.594,0.719l-0.281,1.188l-0.938,0.281l-1.344-3.094
			l3.062-1.719c-5.977-13.328-17.6-23.549-31.844-27.625l0.25,2.406l1.844-0.219l0.625,1.062l-3.531,2.156l-1-5.906
			c-2.358-0.58-4.773-0.987-7.25-1.219l3.875,6.875l2.5,0.219l0.219,0.625l-5.656,3.781V0.656l0.812-2.531l-5-8.094
			C840.978-9.982,840.494-10,840-10z M828.281-5.656l2.281,2.062l3.562,7.344l-0.344,2.969l-3.031,1.844L828,9.188l-2.125-0.969
			l-3.719-6.312l-0.688-2.688l0.625-1.906l3.375-2.281L828.281-5.656z M826.562-3.125l-2.531,2l-0.156,1.5l2.688,4.75l2.406,2
			l1.906-1.25l0.75-0.781l0.219-1.812l-0.75-1.719l-1.062,1.344l-1-0.562L831,1.375l-1.906-4.281L826.562-3.125z M818.938-1
			l0.531,0.781l-0.531,0.875l4.25,11.844l-1.719,0.875l-3.5-3.031l1.375,4.188l-2.969,2.156L807.656,7l-0.281-1.25l1.875-1.094
			l0.688,0.812l-0.75,0.562l7.375,6.875l-3.25-8.25l1.562-1.031l5.625,6.531l-3.344-8.406l-1.312,0.281l-0.688-0.875L818.938-1z
			 M865.469,10.969l0.312,0.188l-6.188,5.031l-22.312,6.531l-4.531,3.875l-3.375,0.5l8.062-5.375l22.656-7.219L865.469,10.969z
			 M879.375,23.219l3.344,1.062l3.844,8.375l-0.75,3.219l-4.062,2.469l-3.219-0.844l-4-8.156l0.219-2.812l1.406-2.031
			L879.375,23.219z M879.812,25.562l-2.375,1.312l-0.844,1.906l3.75,6.562l1.938,0.531l1.594-1.062l0.656-1.5l-3.438-7.406
			L879.812,25.562z M866.875,28.812l4.906,0.469l1.406,4.062l-0.469,2.531l-0.344,0.219l4.375,2.469l1-0.375l0.5,1.75l-3,1.625
			l-0.75-1.75l-3.438-2.906l-1.656,1.031l1.5,4.469l2.531-0.312l0.312,0.969l-5.688,3.281l-0.469-1.562l1.25-1.25l-4.781-11.406
			l-2.688-0.781L866.875,28.812z M841.312,29.594l0.656,1.344l-2,1.188l-1.844-0.688L841.312,29.594z M868.219,30.969L866,31.844
			l2.188,4.469l2.438-1.25l0.5-1.344l-1.188-2.75H868.219z M855.125,35.031l5.219,0.5l1.5,4.344l-0.5,2.688l-0.375,0.25l4.688,2.625
			l1.062-0.406l0.562,1.875l-3.219,1.75l-0.812-1.875l-3.688-3.125l-1.75,1.094l1.594,4.812l2.688-0.344l0.344,1.031l-6.062,3.5
			l-0.5-1.656l1.344-1.344l-5.094-12.188l-2.875-0.844L855.125,35.031z M790.094,37.156C790.041,38.102,790,39.042,790,40
			c0,0.705,0.033,1.396,0.062,2.094l2.656,4.969l13.969,22.531l9.125,12.25l-3.875-8.906l-7.5-11.719l-7-11.375v-1.938l-1.156-0.312
			L790.094,37.156z M856.562,37.312l-2.375,0.938l2.344,4.781l2.594-1.344l0.531-1.438l-1.25-2.938H856.562z M848,39.156
			l1.688,3.031h-0.844l-1.344-0.5l-3,1.344l1.844,4.188l2-0.844l0.156-0.844l1.531,2.531l-0.844-0.188l-2.344,1.344l2,4.875
			l2.531-1.156l-0.188-0.844l1.344-0.5l1.688,2.156l-8.062,4.719L845,56.781l1.156-1.688l-4.031-11.75l-2.344,0.688l-0.5-1.5
			L848,39.156z M836.656,43.562l0.688,1.344l-1.625,2l5.125,12.344l1.875-0.781l0.781,1.062l-6.281,3.219l-0.688-1.875l1.75-2
			l-4.688-11.156l-2.281,0.812l-0.562-1.875L836.656,43.562z M823.844,49.406l5.219,0.5l1.5,4.344l-0.5,2.688l-3.531,2.188
			L829.219,65l2.688-0.344l0.344,1.031l-6.062,3.5l-0.5-1.656l1.344-1.344l-6.188-13.25l-2.875-0.844L823.844,49.406z
			 M825.281,51.688l-2.375,0.938l2.344,4.781l2.594-1.344l0.531-1.438l-1.25-2.938H825.281z M821.156,56.625l3.531,7.875l-1.5,0.344
			L821.156,56.625z M874.531,61.469l-1.344,2.188h-2.531l-1.5,3.188l4.188-0.156l3.188,0.844l1.344-3.375h2.344l-0.5-2.5
			L874.531,61.469z M860,69.875l-1.031,1.25l-3.562-0.625l-4.625,5.25h-6.5l-0.625,4.594l-6.094,0.625l-3.344,2.125l-0.438,4.594
			l7.562-0.406l0.219-2.312l6.688,0.406l0.656-2.938l1.875-0.406l0.625-3.781l5.031,0.219v-3.344l4.188-1.062l3.562-4.188H860z"/>
		<path id="path4351" inkscape:connector-curvature="0" fill="#FFFFFF" d="M840-110c-1.89,0-3.738,0.181-5.531,0.516l1.125,2.297
			l-0.258,2.227l-2.273,1.383L831-103.109l-1.594-0.727l-1.992-3.398c-0.688,0.319-1.356,0.663-2.016,1.031l1.992,5.578
			l-1.289,0.656l-2.625-2.273l1.031,3.141l-2.227,1.617l-3.422-3.797c-1.357,1.349-2.575,2.82-3.656,4.406l0.961,1.688l1.875,0.164
			l0.164,0.469l-4.242,2.812v-0.773l0.609-1.898l-0.469-0.75C811.49-90.715,810-85.531,810-80c0,1.799,0.165,3.561,0.469,5.273
			l1.758,2.766l17.297-9.797L813.07-70.625l8.836,13.969l0.492,0.961c2.933,2.127,6.27,3.73,9.867,4.688l0.047-0.141l0.844,0.352
			c0.718,0.167,1.443,0.307,2.18,0.422l1.688-2.555h3.938l1.195-2.742l3.328-0.586l0.398-2.156l3.352,0.773l1.758-3.352h3.141
			l1.195-2.93l5.109,0.375l0.375-2.742l2.953,0.797l1.969-2.766L867.492-68C869.1-71.676,870-75.731,870-80
			c0-0.534-0.02-1.067-0.047-1.594l-1.055-0.281l-3-6.117l0.164-2.109l1.055-1.523l0.445-0.188
			c-3.902-9.093-12.152-15.873-22.148-17.695l-1.172,0.797v-0.797l0.047-0.164C842.888-109.873,841.457-110,840-110z
			 M833.133-109.203c-1.444,0.338-2.84,0.797-4.195,1.336l0.984,1.711l1.805,1.5l1.43-0.938l0.562-0.586l0.164-1.359l-0.562-1.289
			l-0.797,1.008l-0.75-0.422l1.477-0.727L833.133-109.203z M824.156-105.477c-0.314,0.196-0.631,0.402-0.938,0.609l2.156,2.484
			L824.156-105.477z M821.203-103.391c-0.367,0.296-0.726,0.625-1.078,0.938l2.297,2.133L821.203-103.391z M859.102-101.773
			l0.234,0.141l-4.641,3.773l-16.734,4.898l-3.398,2.906l-2.531,0.375l6.047-4.031l16.992-5.414L859.102-101.773z M868.289-89.961
			l-0.211,0.117l-0.633,1.43l2.203,3.844C869.364-86.431,868.898-88.229,868.289-89.961z M860.156-88.391l3.68,0.352l1.055,3.047
			l-0.352,1.898l-0.258,0.164l3.281,1.852l0.75-0.281l0.375,1.312l-2.25,1.219l-0.562-1.312l-2.578-2.18l-1.242,0.773l1.125,3.352
			l1.898-0.234l0.234,0.727l-4.266,2.461l-0.352-1.172l0.938-0.938l-3.586-8.555l-2.016-0.586L860.156-88.391z M840.984-87.805
			l0.492,1.008l-1.5,0.891l-1.383-0.516L840.984-87.805z M861.164-86.773l-1.664,0.656l1.641,3.352l1.828-0.938l0.375-1.008
			l-0.891-2.062H861.164z M851.344-83.727l3.914,0.375l1.125,3.258l-0.375,2.016l-0.281,0.188l3.516,1.969l0.797-0.305l0.422,1.406
			l-2.414,1.312l-0.609-1.406l-2.766-2.344l-1.312,0.82l1.195,3.609l2.016-0.258l0.258,0.773l-4.547,2.625l-0.375-1.242l1.008-1.008
			l-3.82-9.141l-2.156-0.633L851.344-83.727z M852.422-82.016l-1.781,0.703l1.758,3.586l1.945-1.008l0.398-1.078l-0.938-2.203
			H852.422z M846-80.633l1.266,2.273h-0.633l-1.008-0.375l-2.25,1.008l1.383,3.141l1.5-0.633l0.117-0.633l1.148,1.898l-0.633-0.141
			l-1.758,1.008l1.5,3.656l1.898-0.867l-0.141-0.633l1.008-0.375l1.266,1.617l-6.047,3.539l-0.867-1.266l0.867-1.266l-3.023-8.812
			l-1.758,0.516l-0.375-1.125L846-80.633z M837.492-77.328l0.516,1.008l-1.219,1.5l3.844,9.258l1.406-0.586l0.586,0.797
			l-4.711,2.414l-0.516-1.406l1.312-1.5l-3.516-8.367l-1.711,0.609l-0.422-1.406L837.492-77.328z M827.883-72.945l3.914,0.375
			l1.125,3.258l-0.375,2.016l-2.648,1.641l2.016,4.406l2.016-0.258l0.258,0.773l-4.547,2.625l-0.375-1.242l1.008-1.008l-4.641-9.938
			l-2.156-0.633L827.883-72.945z M828.961-71.234l-1.781,0.703l1.758,3.586l1.945-1.008l0.398-1.078l-0.938-2.203H828.961z
			 M825.867-67.531l2.648,5.906l-1.125,0.258L825.867-67.531z M862.992-62.258l-1.125,2.391l0.375-0.023
			c0.683-0.755,1.342-1.545,1.945-2.367H862.992z M855-57.594l-0.773,0.938l-2.672-0.469l-3.469,3.938h-4.875l-0.422,3.047
			c1.982-0.183,3.914-0.552,5.766-1.102v-0.07h0.188c1.233-0.375,2.426-0.812,3.586-1.336v-1.008l3.141-0.797l2.672-3.141H855z"/>
	</g>
	
		<g id="layer6" transform="translate(0,140)" sodipodi:insensitive="true" inkscape:label="Gloucester Road" inkscape:groupmode="layer">
		<path id="path3128" inkscape:connector-curvature="0" fill="#FFFFFF" d="M743.938,5.125l-66.562,0.75L676.938,7.5l66.688-0.219
			L743.938,5.125z M680.156,8.844l-0.125,2.562l1.875,0.156L680.031,12l0.281,4.156L741,15.875L740.719,14L708.5,13.875
			l24.875-1.156H741l0.125-2.594l-34.219,1l15.969-1.281L741,9.562l-0.438-0.594L680.156,8.844z M745.844,15.094l-1.719,0.562
			l0.156,2.188l0.688,0.625l0.625-0.969l2.375,0.688l-0.125-2.125L745.844,15.094z M710.031,18.062L681.75,18.25l0.531,42.062
			l27.938-0.188h0.188l-0.125-15.281l-1.156-0.062v-0.812l-0.812-0.344l0.031-6.312l0.906-0.469V36.25h0.938L710.031,18.062
			L710.031,18.062z M711.062,18.062l-0.25,18.188h0.781v0.375l1,0.406v6.906L712,44.312l-0.062,0.594l-1.25-0.062l-0.219,15.281
			h0.125l27.5,0.188l0.25-18.531l-0.875-0.531l-0.219-1.219l1.125-0.906l0.281-20.875L711.062,18.062z M742.781,18.625l-2.125,0.625
			l0.281,2.125l2.812-0.406l-1.094-1.031L742.781,18.625z M746.188,19.344l-2.25,2.375l1.438,2.406l1.438-0.969l2.312,0.375
			l-0.812-2.125l0.875-0.906l-1.094-0.688L746.188,19.344z M753.531,19.531l-2.188,0.156l-1.219,1.344l1.219,1.812l0.906,0.188
			l0.062-1.125l2.406-0.625L753.531,19.531z M708.219,20.406l-0.844,0.656h-0.062l0.031,10.688l-10.25,0.188l-0.281-10.812
			l-1.656,0.031l0.031,10.656l-10.469,0.031l-0.25-10.625h-0.688l-0.688-0.625L708.219,20.406L708.219,20.406z M712.188,20.406
			l25.125,0.188l-0.719,0.625h-0.219l-0.281,10.625l-10.469-0.031l0.031-10.656L724,21.125l-0.25,10.812l-10.281-0.188l0.031-10.688
			h-0.062L712.188,20.406L712.188,20.406z M743.406,23.031l-1.656,0.688l-0.906,2l1.281,1.719l1.375-2.062l1.094,0.312l0.125-0.906
			L743.406,23.031z M679.5,24.031l-5.25,0.094l-7.188,0.344l-1.5,1.375l8.156-0.969L679.5,25V24.031L679.5,24.031z M751,24.094
			l-2.312,0.25h-2.312l-0.781,1.094l2.438,0.438L748.469,28l2.625-1L751,24.094z M745.281,26.406l-1.719,0.531l0.125,2.219
			l0.688,0.594L745,28.812l2.406,0.688l-0.125-2.156L745.281,26.406z M757.125,27.312l-3.938,0.094l-2.5,1.906l2.188-0.219
			l0.625,1.25l1.406-0.406l1.438,0.25l0.031-2.125L757.125,27.312L757.125,27.312z M746.25,30.344l-1.219,1.562l0.812,1.594l4-0.5
			l-0.688-1.5l0.875-0.969L746.25,30.344z M679.719,30.562l-3,0.219l-13.531,0.438l2.781,1.062h2.281l11.031-0.625L679.719,30.562z
			 M743.031,30.688l-2.469,0.75l-0.406,3.5l0.938-1.312l1.656,0.219l0.844-0.969l1.375,0.219L743.031,30.688z M752.938,30.75
			l-2.156,0.625l0.281,2.125l2.812-0.406l-1.094-1.031L752.938,30.75z M747.688,33.781l-4.5,1.188l-2.375,2.906l2.469-0.844
			l1.094,1.281l1.5-0.875l1.719-0.094l-0.531-2.469L747.688,33.781L747.688,33.781z M751.438,34.219l-2.781,1.719l0.75,2.688
			l1.625-0.531l2.125,0.969l-0.188-2.25l1.062-0.656l-0.875-0.969L751.438,34.219z M684.469,34.375l10.688,0.156l0.031,10.375
			l-10.469,0.031L684.469,34.375L684.469,34.375z M736.375,34.375l-0.281,10.562l-10.469-0.031l0.031-10.375L736.375,34.375
			L736.375,34.375z M696.812,34.438l10.5,0.031l0.031,10.375L697.094,45L696.812,34.438L696.812,34.438z M724,34.438L723.75,45
			l-10.281-0.156l0.031-10.375L724,34.438L724,34.438z M675.656,37.562l-8.375,0.406l-2.812,1.312l14.281,0.406l0.344-1.062
			l-7.969-0.219l4.531-0.094V37.562L675.656,37.562z M754.5,37.812l-0.594,2.438l-0.438,2.094l0.594-0.781L755,43l0.781-1.812
			l2.031-0.219l-1.438-2L756.812,38L754.5,37.812z M709.688,38.438l0.219,2.75h1.438l0.125-2.75H709.688z M740.688,38.594
			l-2.594,1.625h1.781V42.5l2.594-3.219l-0.531-0.625L740.688,38.594z M747.906,39.281l-2.25,0.219h-2.25l-0.75,1.062L745,41
			l0.438,2.031l2.594-0.969L747.906,39.281z M750.375,39.812l-1.719,0.562l0.156,2.188l0.688,0.625l0.594-0.969l2.406,0.688
			l-0.125-2.125L750.375,39.812z M742.344,41.688l-1.094,0.75l1.031,0.406l-0.75,2.531l1.969-0.594l-0.469,1.344l2.406-1.5
			l-1.375-2.688L742.344,41.688z M757.75,43.156l-4.531,1.188l-2.344,2.906l2.469-0.875l1.062,1.281l1.5-0.844l1.719-0.125
			l-0.531-2.469L757.75,43.156z M748.594,43.75l-1.094,0.594l-0.75,0.906l-0.156,1.156l0.844-0.75l2.125,1.375l0.062-0.969
			l1.25,0.75l-0.562-2.25L748.594,43.75z M684.469,46.938l10.688,0.156l0.031,10.844l-10.469,0.031L684.469,46.938L684.469,46.938z
			 M736.375,46.938l-0.281,11.031l-10.469-0.031l0.031-10.844L736.375,46.938L736.375,46.938z M696.812,47l10.5,0.031l0.031,10.844
			l-10.25,0.156L696.812,47z M724,47l-0.25,11.031l-10.281-0.156l0.031-10.844L724,47z M677.25,47.219l-5.031,0.312l0.844,0.531
			l4.312-0.188L677.25,47.219z M743.812,47.281L741,49l0.781,2.688l1.594-0.531l2.156,0.969l-0.219-2.25l1.062-0.656l-0.844-0.969
			L743.812,47.281z M750.625,47.75l-2.781,0.156l0.188,1.688l-1.406,1.875l2.25,0.281l0.375,1.188l1.125-0.625l1.344-1.469
			L750.625,47.75z M753.344,48.125l-1.25,0.062l-0.531,0.625l2.594,3.25v-2.281h1.781L753.344,48.125z M745.844,52.812l-2.219,2.375
			l1.406,2.406l1.438-0.969L748.781,57l-0.812-2.125l0.875-0.906l-1.094-0.688L745.844,52.812z M679.5,53.344l-11.688,0.312
			l2.031,0.656h9.438L679.5,53.344z M754.656,54.25l-2.281,0.219h-2.25l-0.75,1.062l2.375,0.438L752.188,58l2.562-0.969
			L754.656,54.25L754.656,54.25z M743.062,56.5l-1.656,0.688l-0.906,2l1.281,1.719l1.375-2.062l1.094,0.312l0.125-0.906
			L743.062,56.5z M750.656,57.562l-2.312,0.219h-2.312l-0.781,1.125l2.438,0.438l0.438,2.125l2.625-1L750.656,57.562L750.656,57.562
			z M754.531,58.188l-2.781,1.719l0.75,2.688l1.625-0.531l0.594,0.281c0.526-1.052,1.017-2.127,1.469-3.219L754.531,58.188z
			 M744.938,59.875l-1.719,0.531l0.125,2.219l0.688,0.594l0.625-0.938l2.406,0.688l-0.125-2.156L744.938,59.875z M700.312,61.312
			l-1.031,3.75l-1.438-2.156l-3.156-0.594l-0.719,2.156l-1.438,0.719l-0.156-2.156l-1.125-0.406l-3.906,2.875l0.594-3.031
			l-4.469,0.281v0.875l-2.156-1.438l-1.281,0.562l0.438,2.75l0.844,1.125l-2,0.312l-0.594,1.438l2.469,2.281l3.281-2l1.312-0.875
			L685.5,69.5l2.438,2.031l2.875-1.156l0.281,2.312l2-0.875l-0.406-1.719l1.844-0.281l0.312,3.312l1.438,0.281L698,71.812v1l2,1.438
			l2.031-1l-0.719,2.156l2.438,0.875l3.594-2.875l1-2.156l2.031,2.156l3.719-5.344l-0.562,2.75l10.219,2.312l2.438-2.75l1.156,2.594
			h2.438l1.156-2.156l3.312,0.875l-3.188,1.438l2.156,2.062l6.469-3.5l-0.562-3.312l3.594-0.875v-2.438l-1.312-1.438l-2.844,0.844
			l0.125-1.281l-2-0.562l-1.312,1.562l-0.719-2.438H732.5l-0.562,2.875l-0.594-2.312l-5.031-0.281l-0.406,1.719l-0.438-0.844
			l-2.75-0.281l-1.281,2.281L721,62.469l-2.594-0.281l-2.156,1.562l-1.719-1.719l-0.719,1.156l-0.719-1.594l-4.875-0.125
			l-1.875,3.719l-0.281-2.438l-1.312-0.281l-1.156,2l-0.281-2.156L700.312,61.312z M750.688,62.375l-1.125,0.75l1.031,0.406
			l-0.75,2.562l2-0.625l-0.469,1.375l1.312-0.812c0.265-0.434,0.53-0.871,0.781-1.312l-1.062-2.062L750.688,62.375z M745.906,63.812
			l-1.219,1.562l0.812,1.594l4-0.5l-0.688-1.5L749.688,64L745.906,63.812z M750.719,67.781l-3.25,0.281l-0.562,2.719l1.688,0.25
			l0.312,0.375c0.786-0.973,1.537-1.969,2.25-3L750.719,67.781z M685.844,72.781l-5.062,0.281l0.125,4.594l19.25-0.812l0.188-0.812
			l-16.594,0.406l14.125-1.938l-13.031,1.031l0.312-0.406l7.594-0.812l-5.531-0.469L685.844,72.781z M713.094,74.031l-0.219,1.125
			l8.969-0.969L713.094,74.031z M730.844,75.375l-18.562,0.656l2.656,0.75l15.969-0.969L730.844,75.375z"/>
		<path id="path4294" inkscape:connector-curvature="0" fill="#FFFFFF" d="M724.906-106.039l-30.422,0.352
			c-0.666,0.403-1.314,0.837-1.945,1.289l34.758-0.117C726.529-105.058,725.726-105.569,724.906-106.039z M691.18-103.367
			c-0.786,0.635-1.532,1.33-2.25,2.039h-0.023c-0.454,0.449-0.888,0.905-1.312,1.383l0.141,2.062l45.516-0.211l-0.164-1.055
			c-0.098-0.118-0.205-0.235-0.305-0.352l-23.906-0.094l18.656-0.867h4.406c-0.608-0.652-1.235-1.256-1.898-1.852l-22.359,0.656
			l11.977-0.961l9.867-0.164c-0.196-0.168-0.409-0.329-0.609-0.492L691.18-103.367L691.18-103.367z M710.023-96.453l-21.211,0.141
			l0.398,31.547l20.953-0.141h0.141l-0.094-11.461l-0.867-0.047v-0.609l-0.609-0.258l0.023-4.734l0.68-0.352v-0.445h0.703
			L710.023-96.453z M710.797-96.453l-0.188,13.641h0.586v0.281l0.75,0.305v5.18l-0.445,0.281l-0.047,0.445l-0.938-0.047
			l-0.164,11.461h0.094l20.625,0.141l0.188-13.898l-0.656-0.398l-0.164-0.914l0.844-0.68l0.211-15.656L710.797-96.453
			L710.797-96.453z M734.586-96.031l-1.594,0.469l0.211,1.594l2.109-0.305l-0.82-0.773L734.586-96.031L734.586-96.031z
			 M708.664-94.695l-0.633,0.492h-0.047l0.023,8.016l-7.688,0.141l-0.211-8.109l-1.242,0.023l0.023,7.992l-7.852,0.023l-0.188-7.969
			h-0.516l-0.516-0.469L708.664-94.695L708.664-94.695z M711.641-94.695l18.844,0.141l-0.539,0.469h-0.164l-0.211,7.969
			l-7.852-0.023l0.023-7.992l-1.242-0.023l-0.188,8.109l-7.711-0.141l0.023-8.016h-0.047L711.641-94.695L711.641-94.695z
			 M736.25-94.555l-0.797,0.844l1.078,1.805l0.773-0.516C736.974-93.147,736.636-93.862,736.25-94.555z M735.055-92.727
			l-1.242,0.516l-0.68,1.5l0.961,1.289l1.031-1.547l0.82,0.234l0.094-0.68L735.055-92.727L735.055-92.727z M687.125-91.977
			l-3.938,0.07l-0.727,0.023c-0.088,0.202-0.175,0.405-0.258,0.609l0.586-0.07l4.336,0.094V-91.977L687.125-91.977z M737.281-91.742
			l-0.586,0.82l1.336,0.234c-0.136-0.354-0.273-0.707-0.422-1.055H737.281z M736.461-90.195l-1.289,0.398l0.094,1.664l0.516,0.445
			l0.469-0.703l1.805,0.516l-0.094-1.617L736.461-90.195z M737.188-87.242l-0.914,1.172l0.609,1.195l2.648-0.328
			c-0.114-0.656-0.242-1.305-0.398-1.945L737.188-87.242z M687.289-87.078l-2.25,0.164l-4.266,0.141
			c-0.066,0.288-0.13,0.576-0.188,0.867l6.375-0.352L687.289-87.078z M734.773-86.984l-1.852,0.562l-0.305,2.625l0.703-0.984
			l1.242,0.164l0.633-0.727l1.031,0.164L734.773-86.984z M738.266-84.664l-3.375,0.891l-1.781,2.18l1.852-0.633l0.82,0.961
			l1.125-0.656l1.289-0.07l-0.398-1.852L738.266-84.664z M690.852-84.219l8.016,0.117l0.023,7.781l-7.852,0.023L690.852-84.219
			L690.852-84.219z M729.781-84.219l-0.211,7.922l-7.852-0.023l0.023-7.781L729.781-84.219z M700.109-84.172l7.875,0.023
			l0.023,7.781l-7.688,0.117L700.109-84.172L700.109-84.172z M720.5-84.172l-0.188,7.922l-7.711-0.117l0.023-7.781L720.5-84.172
			L720.5-84.172z M739.789-83.539l-0.797,0.492l0.562,2.016l0.398-0.141C739.923-81.969,739.881-82.759,739.789-83.539z
			 M684.242-81.828l-4.195,0.211c-0.021,0.395-0.018,0.796-0.023,1.195l6.539,0.188l0.258-0.797l-5.977-0.164l3.398-0.07V-81.828
			L684.242-81.828z M709.766-81.172l0.164,2.062h1.078l0.094-2.062H709.766L709.766-81.172z M733.016-81.055l-1.945,1.219h1.336
			v1.711l1.945-2.414l-0.398-0.469L733.016-81.055z M738.43-80.539l-1.688,0.164h-1.688l-0.562,0.797l1.758,0.328l0.328,1.523
			l1.945-0.727L738.43-80.539L738.43-80.539z M740-80.047l-1.008,0.328l0.117,1.641l0.516,0.469l0.305-0.492
			C739.969-78.729,740-79.363,740-80C740-80.016,740-80.031,740-80.047z M734.258-78.734l-0.82,0.562l0.773,0.305l-0.562,1.898
			l1.477-0.445l-0.352,1.008l1.805-1.125l-1.031-2.016L734.258-78.734z M738.945-77.188l-0.82,0.445l-0.562,0.68l-0.117,0.867
			l0.633-0.562l1.453,0.938c0.112-0.643,0.211-1.289,0.281-1.945L738.945-77.188z M690.852-74.797l8.016,0.117l0.023,8.133
			l-7.852,0.023L690.852-74.797L690.852-74.797z M729.781-74.797l-0.211,8.273l-7.852-0.023l0.023-8.133L729.781-74.797
			L729.781-74.797z M700.109-74.75l7.875,0.023l0.023,8.133l-7.688,0.117L700.109-74.75z M720.5-74.75l-0.188,8.273l-7.711-0.117
			l0.023-8.133L720.5-74.75L720.5-74.75z M685.438-74.586l-3.773,0.234l0.633,0.398l3.234-0.141L685.438-74.586L685.438-74.586z
			 M735.359-74.539l-2.109,1.289l0.586,2.016l1.195-0.398l1.617,0.727l-0.164-1.688l0.797-0.492l-0.633-0.727L735.359-74.539z
			 M739.414-74.117l-1.031,0.047l0.141,1.266l-1.055,1.406l1.219,0.164C738.974-72.174,739.22-73.141,739.414-74.117z
			 M736.883-70.391l-1.664,1.781l1.055,1.805l0.984-0.656c0.387-0.839,0.722-1.699,1.031-2.578L736.883-70.391z M687.125-69.992
			l-5.344,0.141c0.07,0.196,0.137,0.392,0.211,0.586h4.969L687.125-69.992z M734.797-67.625l-1.242,0.516l-0.68,1.5l0.961,1.289
			l1.031-1.547l0.82,0.234l0.094-0.68L734.797-67.625L734.797-67.625z M736.016-65.023l-1.102,0.328l0.07,1.289
			C735.335-63.934,735.698-64.473,736.016-65.023z M702.734-64.016l-0.773,2.812l-1.078-1.617l-2.367-0.445l-0.539,1.617
			l-1.078,0.539l-0.117-1.617l-0.844-0.305l-2.93,2.156l0.445-2.273l-3.352,0.211v0.656l-1.617-1.078l-0.961,0.422l0.328,2.062
			l0.633,0.844l-0.75,0.117c0.653,0.725,1.318,1.404,2.039,2.062l1.078-0.656l0.984-0.656l-0.211,1.289l1.828,1.523l2.156-0.867
			l0.211,1.734l1.5-0.656l-0.305-1.289l1.383-0.211l0.234,2.484l1.078,0.211L701-56.141v0.75l1.5,1.078l1.523-0.75l-0.539,1.617
			l1.828,0.656l2.695-2.156l0.75-1.617l1.523,1.617l2.789-4.008l-0.422,2.062l7.664,1.734l1.828-2.062l0.867,1.945h1.828
			l0.867-1.617l2.484,0.656l-2.391,1.078l0.422,0.398c2.964-1.908,5.562-4.325,7.688-7.125l-0.352-0.398l-2.133,0.633l0.094-0.961
			l-1.5-0.422l-0.984,1.172l-0.539-1.828h-1.617l-0.422,2.156l-0.445-1.734l-3.773-0.211l-0.305,1.289l-0.328-0.633l-2.062-0.211
			l-0.961,1.711l-0.328-1.828l-1.945-0.211l-1.617,1.172l-1.289-1.289l-0.539,0.867l-0.539-1.195l-3.656-0.094l-1.406,2.789
			l-0.211-1.828l-0.984-0.211l-0.867,1.5l-0.211-1.617L702.734-64.016L702.734-64.016z M694.18-54.5
			c0.254,0.158,0.515,0.318,0.773,0.469l2.109-0.234L694.18-54.5z M712.32-54.477l-0.164,0.844l6.727-0.727L712.32-54.477z
			 M700.906-54.125l-5.367,0.422c0.156,0.086,0.311,0.174,0.469,0.258L700.906-54.125z M723.898-53.398l-12.188,0.422l1.992,0.562
			l9.352-0.562C723.34-53.114,723.619-53.252,723.898-53.398z M702.758-52.977l-5.508,0.141c0.49,0.23,0.996,0.429,1.5,0.633
			l3.867-0.164L702.758-52.977z"/>
	</g>
	
		<g id="layer5" transform="translate(0,140)" sodipodi:insensitive="true" inkscape:label="Woolwich Arsenal" inkscape:groupmode="layer">
		<path id="path4190" inkscape:connector-curvature="0" fill="#FFFFFF" d="M580-10c-1.347,0-2.68,0.052-4,0.156l-0.031,8.688
			l-3.781,0.969l-0.094,5.906l2.781,2.688l-0.094-5.688l6.344-0.656l-0.75-3.75L580-10z M601.031-4.906l0.75,10.375l1.5,0.312
			l-1.031-9.469L601.031-4.906z M545.281,4.031c-0.437,0.422-0.86,0.844-1.281,1.281l-0.219,10.906l-1.031-0.656l-0.531,19.375
			l1.031,0.531L544.562,20l0.188,0.031l1.156-15.438L545.281,4.031L545.281,4.031z M580.469,4.531l-4.281,0.219v3v4.031
			l-4.875,1.719l-4.062,9.688l2.625,8.281l6.469,4.844l1.219-2.031l-5.656-3.844l-2.219-7.469l3.438-8.062l3.062-1v1.562L577.156,17
			l3.75-1.312l0.031-2.281l5.281,3.938l0.531,2.219l2.062-1.438L588.062,16l-7.094-5.281L581,6.344L580.469,4.531L580.469,4.531z
			 M551.281,4.594l-0.344,3.875l1.031,3l0.656-5.031L551.281,4.594z M619.406,9.25L618.062,16h1.5l0.156-6.375
			C619.62,9.496,619.506,9.378,619.406,9.25z M575.25,10.844l-6.219,0.969l-4.906,9.875l3.125,10.094l7.406,4.844l-6.031-5.094
			l-2.562-10.125l4.219-9L575.25,10.844z M608.281,12.719l-2.688,16.438l1.344,1.344l2.531-15.25L608.281,12.719z M537.781,13.188
			c-0.286,0.449-0.541,0.916-0.812,1.375l1.375,18.094h1L539,15.281L537.781,13.188z M591,18.844l-10.562,5.938l3.469-1.156
			l9.562,1.406l4.656,7.125v4.125L602,33.188v-1.312l-9.688-12.906L591,18.844z M616.656,20v14.438l0.531,0.25l1.844-11.781
			L616.656,20z M583.062,25.438l-6.844,3.594l8.469,0.406l3.875,3.969l-1.094,13.656h-0.031l-0.906,4.25l6.281,20.875l7.438-2.906
			l-1.031-2.875l-3.812,1.031l-0.625-2.281L598.719,64l-0.844-2.875l-3.719,0.938l-4.188-14.281l2.781-1.344l3.656-4.219
			l-0.469-8.969l-3.812-6.125L583.062,25.438L583.062,25.438z M575.656,30.906l3.219,1.25l1.625,2.75l-1.781,4.719l-4.562,1.406
			l-3.719-2.344l0.281-2.781l-5.75-3.25L563.75,44.75l2.969,7.688l3.031,0.469l-2.969,21.75l1.656-0.5l3.5-13.75l-2.594,14.656
			l2.906,0.25l2.906-3.031l0.344-2l-1.562-1.188l2.031-1.281l0.406-2.062l-1.875-1.094l0.781-4.125l1.531-0.75l0.406-5.594
			l2.812,0.344l5.062-8.969l0.719-10.281l-2.312-3.75L575.656,30.906z M555.469,36.156l-1,21.812l1.5,0.812l0.344-20.469
			L555.469,36.156z M599.625,37.062l-0.406,4.781l11.656,13.719l1.156-1.062l-1.719-1.906l0.062-2.25l-5.938-7.25L602.375,43
			l-0.094-2.906L599.625,37.062L599.625,37.062z M543.781,42.562v6.531l1.062-1.562L543.781,42.562z M598.719,43.156l-1.312,1.25
			l11.406,13.625l1.406-1.469L598.719,43.156z M535.656,43.594V57.75l0.781,1.062L536.719,47L535.656,43.594z M541.938,55.656
			l1,17.906c0.526,0.582,1.071,1.131,1.625,1.688L541.938,55.656z M613.25,65.625l-3.656,4.188l0.781,2.875l3.406-3.656
			L613.25,65.625z M559.688,69.375l0.781,4.125l1.781,0.594L559.688,69.375z M585.188,79.688l-1.281,2.906l1.406,1.062l1.062-2.875
			L585.188,79.688z"/>
		<path id="path4194" inkscape:connector-curvature="0" fill="#FFFFFF" d="M580.059-110c-1.962,0-3.877,0.206-5.731,0.573
			l-0.069,3.622l2.041,1.972l-0.069-4.172l4.654-0.481l-0.298-1.49C580.41-109.98,580.235-110,580.059-110L580.059-110z
			 M580.402-106.676l-3.141,0.161v2.201v2.958l-3.577,1.261l-2.979,7.107l1.926,6.075l4.745,3.553l0.895-1.49l-4.149-2.82
			l-1.628-5.479l2.521-5.915l2.247-0.734v1.146l0.71,1.123l2.752-0.963l0.022-1.673l3.874,2.889l0.39,1.627l1.514-1.054
			l-0.551-1.559l-5.204-3.875l0.023-3.209L580.402-106.676L580.402-106.676z M576.573-102.045l-4.562,0.71l-3.6,7.245l2.293,7.405
			l5.433,3.554l-4.424-3.737l-1.88-7.428l3.095-6.602L576.573-102.045z M600.806-100.669l-1.972,12.059l0.986,0.986l1.856-11.188
			L600.806-100.669z M588.128-96.176l-7.749,4.356l2.545-0.848l7.016,1.032l3.416,5.227v3.026l2.843-2.27v-0.963l-7.107-9.468
			L588.128-96.176z M553.946-94.067c-0.544,1.057-1.007,2.152-1.421,3.278l-0.184,6.419l0.757,0.39L553.946-94.067L553.946-94.067z
			 M606.95-92.394v7.657l0.39,0.184l0.756-4.792C607.772-90.392,607.384-91.399,606.95-92.394z M582.305-91.339l-5.021,2.636
			l6.213,0.298l2.843,2.912l-0.803,10.018h-0.022l-0.665,3.118l4.608,15.314l5.456-2.132l-0.757-2.109l-2.797,0.756l-0.458-1.673
			l2.889-0.848l-0.619-2.109l-2.729,0.688l-3.071-10.477l2.04-0.986l2.682-3.095l-0.344-6.58l-2.797-4.494L582.305-91.339
			L582.305-91.339z M576.872-87.327l2.361,0.917l1.191,2.017l-1.307,3.462l-3.347,1.032l-2.729-1.72l0.207-2.04l-4.219-2.384
			l-0.894,8.872l2.178,5.64l2.224,0.344l-2.178,15.956l1.215-0.367l2.567-10.087l-1.902,10.752l2.132,0.184l2.132-2.224l0.252-1.467
			l-1.146-0.871l1.49-0.94l0.298-1.513l-1.376-0.802l0.573-3.026l1.123-0.55l0.299-4.104l2.062,0.252l3.714-6.58l0.527-7.542
			l-1.696-2.751L576.872-87.327L576.872-87.327z M562.062-83.476l-0.733,16.002l1.101,0.596l0.252-15.016L562.062-83.476z
			 M594.455-82.811l-0.298,3.507l8.552,10.064l0.848-0.779l-1.261-1.398l0.046-1.651l-4.355-5.319l-1.514-0.068l-0.068-2.132
			L594.455-82.811L594.455-82.811z M553.488-78.776v4.792l0.779-1.146L553.488-78.776z M593.791-78.34l-0.963,0.917l8.367,9.996
			l1.032-1.078L593.791-78.34z M565.157-59.106l0.572,3.026l1.308,0.436L565.157-59.106z"/>
	</g>
	
		<g id="layer4" transform="translate(0,140)" sodipodi:insensitive="true" inkscape:label="London Bridge" inkscape:groupmode="layer">
		
			<path id="path4213" sodipodi:nodetypes="scccccccccccccccccccccccccscccccccccccccccccccccccccccccccccccccccccccccccccccccccccccccccccccccccccccccccccccccccccccccccccccccccccccccccccccccccccccccccccccccccccccccccccccccccccccccccccccccccccccccccccccccccccccccccccccccccccccccccccccccccccccccccccccccccccccccccccccccccccccccccccccccccccccccccccccccccccccccccccccccccccccccccccccccccccccccccccccccccccccccccccccccccccccccccccccccccccccccccccsc" inkscape:connector-curvature="0" fill="#FFFFFF" d="
			M450-10c-19.748,0-36.812,11.44-44.938,28.062l19.25,0.312l1,5.344l1.188-0.312l0.5-5.219l18.844-0.344l0.875-2l12.781-0.125
			l0.219,3.656l2.531-0.062l-0.031-4.906h4.812l0.094,4.844l2.25-0.062l1.062,1.688l2.188,1.688v0.812h1.25l-0.062,3.125
			l-1.188-0.094v0.844l-0.969,2.906l-11.906-0.125l0.406,1.406l39.156,0.281C495.366,8.045,474.793-10,450-10z M444.031-3.312
			l1.844,2.125l5.562,2l0.688-0.562l2.625-0.969l5.5,2.469l2.062-1.094l1.781,3.25l-0.625,2.188l2.406,0.062l0.625,6.062
			l-1.875,0.062l-4.938-4V5.344l-3.844-2.688l-1.719,2.406l-4.938-2.75l-4,3.219l-6.812-5.75l1.312-1.656L444.031-3.312z
			 M458.094,17.406l-8.5,0.094l-0.875,2.688l4.656-0.094l0.562-2.219l0.875-0.062l0.281,2.125l3.5,0.125L458.094,17.406z
			 M403.75,20.125v4.25l2.344,0.125v-4.375H403.75z M408.344,20.125v4.25l2.344,0.125v-4.375H408.344z M411.656,20.125v4.25
			L414,24.5v-4.375H411.656z M416.469,20.125v4.25l2.344,0.125v-4.375H416.469z M419.75,20.125v4.25l2.344,0.125v-4.375H419.75z
			 M428.281,29.938l-27.344,0.438c-0.067,0.345-0.127,0.684-0.188,1.031l25.375-0.188l33.188,0.438l-0.219-1.5L428.281,29.938z
			 M402.906,31.875l-0.75,0.188l-0.062,1.531l0.812-0.5V31.875z M404.281,31.875l-0.75,0.188l-0.062,1.531l0.812-0.5V31.875z
			 M405.875,31.875l-0.75,0.188l-0.062,1.531l0.812-0.5V31.875z M410,31.875l-0.75,0.188l-0.062,1.531l0.812-0.5V31.875z
			 M412.75,31.875L412,32.062l-0.062,1.531l0.812-0.5V31.875z M414.469,31.875l-0.75,0.188l-0.062,1.531l0.812-0.5V31.875z
			 M418.844,31.875l-0.75,0.188l-0.062,1.531l0.812-0.5V31.875z M420.219,31.875l-0.75,0.188l-0.062,1.531l0.812-0.5V31.875z
			 M421.812,31.875l-0.75,0.188L421,33.594l0.812-0.5V31.875z M425.938,31.875l-0.75,0.188l-0.062,1.531l0.812-0.5V31.875z
			 M428.688,31.875l-0.75,0.188l-0.062,1.531l0.812-0.5V31.875z M430.406,31.875l-0.75,0.188l-0.062,1.531l0.812-0.5V31.875z
			 M433.344,31.875l-0.75,0.188l-0.062,1.531l0.812-0.5V31.875z M434.719,31.875l-0.75,0.188l-0.062,1.531l0.812-0.5V31.875z
			 M436.312,31.875l-0.75,0.188l-0.062,1.531l0.812-0.5V31.875z M440.438,31.875l-0.75,0.188l-0.062,1.531l0.812-0.5V31.875z
			 M443.188,31.875l-0.75,0.188l-0.062,1.531l0.812-0.5V31.875z M444.906,31.875l-0.75,0.188l-0.062,1.531l0.812-0.5V31.875z
			 M451.375,31.875l-0.781,0.188l-0.062,1.531l0.844-0.5V31.875z M452.75,31.875l-0.781,0.188l-0.062,1.531l0.844-0.5V31.875z
			 M454.344,31.875l-0.781,0.188l-0.062,1.531l0.844-0.5V31.875z M458.469,31.875l-0.781,0.188l-0.062,1.531l0.844-0.5V31.875z
			 M461.188,31.875l-0.75,0.188l-0.062,1.531l0.812-0.5V31.875z M462.906,31.875l-0.75,0.188l-0.062,1.531l0.812-0.5V31.875z
			 M464.156,31.875l-0.75,0.188l-0.062,1.531l0.812-0.5V31.875z M465.531,31.875l-0.75,0.188l-0.062,1.531l0.812-0.5V31.875z
			 M467.125,31.875l-0.75,0.188l-0.062,1.531l0.812-0.5V31.875z M471.25,31.875l-0.781,0.188l-0.031,1.531l0.812-0.5V31.875z
			 M474,31.875l-0.781,0.188l-0.031,1.531l0.812-0.5V31.875z M475.719,31.875l-0.781,0.188l-0.031,1.531l0.812-0.5V31.875z
			 M483.062,31.875l-0.781,0.188l-0.062,1.531l0.844-0.5V31.875z M484.438,31.875l-0.781,0.188l-0.062,1.531l0.844-0.5V31.875z
			 M486.031,31.875l-0.781,0.188l-0.062,1.531l0.844-0.5V31.875z M490.156,31.875l-0.781,0.188l-0.062,1.531l0.844-0.5V31.875z
			 M492.906,31.875l-0.781,0.188l-0.062,1.531l0.844-0.5V31.875z M494.625,31.875l-0.781,0.188l-0.062,1.531l0.844-0.5V31.875z
			 M459.312,35.781L426.125,36l-25.938-0.094c-0.015,0.186-0.05,0.376-0.062,0.562l28.156,0.281l30.812-0.125L459.312,35.781z
			 M459.75,36.125l0.406,0.594l39.75,0.125c-0.013-0.207-0.047-0.418-0.062-0.625h-17.438L459.75,36.125z M499.812,44.469
			l-10.188,2.062l-5.125,4.594l-1.219,8.312l12.906-0.25C498.1,54.589,499.354,49.641,499.812,44.469z M451.656,44.562l-9.062,2.344
			l-4.875,3.406l-1.469,8.656l31.969,0.281l-1.969-8.219l-4.188-3.625L451.656,44.562z M406.5,44.781l-6.125,1.344
			c0.556,4.554,1.742,8.909,3.438,13l16.969-0.375l-1.906-8.375l-4.594-3.844L406.5,44.781z M421.312,61.125l-16.531,0.25
			c0.226,0.477,0.479,0.938,0.719,1.406L421.312,61.125z M470.625,61.5L434.219,62l-1,3.188l16.094,0.5l-15.094,0.844l13.062,0.844
			l-14.406,0.344v1.656l14.406,0.844l-16.594,1l-0.344,4.375l43.219-0.438l-0.188-2.875L453.5,72.562l20.969-1.844l-18.281-1.156
			l17.625,0.156l-0.188-3.344L453,66.688l19.469-1.844l-14.438,0.188L472.469,64L470.625,61.5z M494.844,62.125l-12.5,0.25
			l-1.531,1.719l12.969-0.156l-11.938,1.438l11,0.406C493.559,64.595,494.228,63.373,494.844,62.125z M413.562,62.938l-7.5,0.969
			c0.399,0.733,0.847,1.445,1.281,2.156h13.844l0.312-2.812L413.562,62.938z M407.406,66.188c0.306,0.496,0.615,0.984,0.938,1.469
			l11.125-0.969L407.406,66.188z M492.438,66.438L485,67.406l1.906,5.719h0.531c1.068-1.207,2.082-2.475,3.031-3.781l-4.438-0.25
			l4.844-0.312C491.418,68.012,491.938,67.238,492.438,66.438z M408.781,68.312c0.331,0.481,0.684,0.938,1.031,1.406L420,69.062
			L408.781,68.312z M417.75,72.281l-5.875,0.062c0.803,0.945,1.662,1.836,2.531,2.719l2.812-0.312L417.75,72.281z M474.719,76.156
			l-14.875,1.156l0.219,1.719L474.625,80L474.719,76.156z M415.719,76.344c0.525,0.496,1.048,0.996,1.594,1.469l0.125-1.438
			L415.719,76.344z M429.781,76.781l-0.75,2.688l29.844-0.312v-1.938L429.781,76.781z M427.094,80.531l12.094,2.531l0.406-2.125
			L427.094,80.531z M441.156,80.969l-0.219,1.938l28.469-1.938H441.156z M475.844,81.562l-34.938,2.719l-14.094-1.75l-0.188,1.688
			c1.24,0.656,2.513,1.26,3.812,1.812l39.219-0.062c2.201-0.941,4.318-2.046,6.344-3.281L475.844,81.562z M466.438,87.219
			l-31.062,0.594C440.001,89.225,444.912,90,450,90C455.761,90,461.287,89.012,466.438,87.219z"/>
		<path id="path4205" inkscape:connector-curvature="0" fill="#FFFFFF" d="M450-110c-0.188,0-0.374,0.02-0.561,0.023l1.636,0.584
			l0.514-0.42l0.304-0.117C451.268-109.969,450.636-110,450-110z M456.17-109.369l1.495,0.678l0.397-0.21
			C457.44-109.075,456.808-109.235,456.17-109.369z M442.592-109.088c-7.383,1.88-13.654,6.516-17.691,12.736l5.89,0.094
			l0.748,3.996l0.888-0.234l0.374-3.903l14.092-0.257l0.654-1.496l9.559-0.094l0.163,2.734l1.894-0.047l-0.023-3.669h3.599
			l0.07,3.623l1.683-0.047l0.795,1.262l1.636,1.262v0.607h0.935l-0.047,2.337l-0.888-0.07v0.631l-0.725,2.173l-8.904-0.093
			l0.305,1.052l21.663,0.163c-2.18-10.274-9.636-18.582-19.396-21.991l0.678,1.239l-0.468,1.636l1.8,0.047l0.467,4.534l-1.401,0.046
			l-3.692-2.991v-2.197l-2.875-2.01l-1.285,1.799l-3.692-2.056l-2.991,2.407L442.592-109.088L442.592-109.088z M456.053-96.983
			l-6.356,0.07l-0.654,2.01l3.482-0.07l0.42-1.659l0.654-0.047l0.211,1.589l2.617,0.094L456.053-96.983L456.053-96.983z
			 M424.924-94.95v3.178l1.753,0.093v-3.271H424.924z M427.378-94.95v3.178l1.753,0.093v-3.271H427.378z M423.078-93.15
			c-0.23,0.473-0.426,0.962-0.631,1.449l0.631,0.023V-93.15z M433.758-87.612l-12.783,0.21c-0.069,0.278-0.125,0.561-0.187,0.841
			l11.357-0.094l24.818,0.327l-0.163-1.122L433.758-87.612z M422.144-86.163l-0.562,0.14l-0.046,1.145l0.607-0.374V-86.163
			L422.144-86.163z M423.429-86.163l-0.561,0.14l-0.047,1.145l0.607-0.374V-86.163L423.429-86.163z M426.7-86.163l-0.561,0.14
			l-0.047,1.145l0.607-0.374V-86.163L426.7-86.163z M427.729-86.163l-0.561,0.14l-0.047,1.145l0.607-0.374V-86.163L427.729-86.163z
			 M428.921-86.163l-0.562,0.14l-0.047,1.145l0.608-0.374V-86.163L428.921-86.163z M432.005-86.163l-0.561,0.14l-0.047,1.145
			l0.607-0.374V-86.163L432.005-86.163z M434.062-86.163l-0.561,0.14l-0.047,1.145l0.607-0.374V-86.163L434.062-86.163z
			 M435.347-86.163l-0.561,0.14l-0.047,1.145l0.607-0.374V-86.163L435.347-86.163z M437.544-86.163l-0.561,0.14l-0.047,1.145
			l0.607-0.374V-86.163L437.544-86.163z M438.572-86.163l-0.561,0.14l-0.047,1.145l0.607-0.374V-86.163L438.572-86.163z
			 M439.764-86.163l-0.561,0.14l-0.047,1.145l0.607-0.374V-86.163L439.764-86.163z M442.849-86.163l-0.561,0.14l-0.047,1.145
			l0.607-0.374V-86.163L442.849-86.163z M444.905-86.163l-0.561,0.14l-0.047,1.145l0.607-0.374V-86.163L444.905-86.163z
			 M446.19-86.163l-0.561,0.14l-0.047,1.145l0.607-0.374V-86.163L446.19-86.163z M451.028-86.163l-0.584,0.14l-0.047,1.145
			l0.631-0.374V-86.163L451.028-86.163z M452.057-86.163l-0.584,0.14l-0.047,1.145l0.631-0.374V-86.163L452.057-86.163z
			 M453.248-86.163l-0.584,0.14l-0.047,1.145l0.631-0.374V-86.163L453.248-86.163z M456.333-86.163l-0.584,0.14l-0.047,1.145
			l0.631-0.374V-86.163L456.333-86.163z M458.366-86.163l-0.561,0.14l-0.047,1.145l0.607-0.374V-86.163L458.366-86.163z
			 M459.651-86.163l-0.561,0.14l-0.047,1.145l0.607-0.374V-86.163L459.651-86.163z M460.587-86.163l-0.562,0.14l-0.047,1.145
			l0.608-0.374V-86.163L460.587-86.163z M461.614-86.163l-0.561,0.14l-0.047,1.145l0.608-0.374L461.614-86.163L461.614-86.163z
			 M462.807-86.163l-0.561,0.14l-0.047,1.145l0.607-0.374V-86.163L462.807-86.163z M465.892-86.163l-0.584,0.14l-0.023,1.145
			l0.607-0.374V-86.163L465.892-86.163z M467.948-86.163l-0.585,0.14l-0.022,1.145l0.607-0.374V-86.163L467.948-86.163z
			 M469.233-86.163l-0.584,0.14l-0.023,1.145l0.607-0.374V-86.163L469.233-86.163z M474.726-86.163l-0.585,0.14l-0.046,1.145
			l0.631-0.374V-86.163L474.726-86.163z M475.754-86.163l-0.585,0.14l-0.047,1.145l0.632-0.374V-86.163L475.754-86.163z
			 M476.945-86.163l-0.584,0.14l-0.047,1.145l0.631-0.374V-86.163L476.945-86.163z M479.423-85.438l-0.023,0.561l0.117-0.07
			C479.489-85.112,479.452-85.274,479.423-85.438L479.423-85.438z M456.964-83.242l-24.818,0.164l-11.896-0.046
			c-0.016,0.155-0.033,0.312-0.047,0.467l13.555,0.14l23.043-0.094L456.964-83.242L456.964-83.242z M457.291-82.984l0.304,0.444
			l22.202,0.07c-0.012-0.148-0.011-0.297-0.023-0.444h-5.539L457.291-82.984L457.291-82.984z M451.238-76.675l-6.777,1.753
			l-3.646,2.547l-1.099,6.473l23.908,0.21l-1.473-6.146l-3.132-2.71L451.238-76.675L451.238-76.675z M420.391-75.857
			c0.5,3.533,1.604,6.862,3.225,9.886l4.534-0.094l-1.426-6.263l-3.436-2.875L420.391-75.857z M479.492-75.062l-3.692,3.295
			l-0.911,6.216l1.285-0.023C477.787-68.475,478.919-71.671,479.492-75.062L479.492-75.062z M428.547-64.289l-3.903,0.07
			c0.068,0.109,0.141,0.219,0.211,0.327L428.547-64.289L428.547-64.289z M465.424-64.008l-27.226,0.374l-0.748,2.384l12.035,0.374
			l-11.287,0.631l9.769,0.631l-10.773,0.257v1.239l10.773,0.631l-12.409,0.748l-0.211,2.734c0.325,0.183,0.649,0.366,0.982,0.538
			l27.903-0.304h0.023c1.121-0.609,2.195-1.314,3.225-2.056v-0.117l-14.863,0.21l15.682-1.379l-13.672-0.865l13.181,0.117
			l-0.141-2.501l-15.424,0.234l14.56-1.379l-10.797,0.14l10.797-0.771L465.424-64.008L465.424-64.008z M474.795-63.377l-0.607,0.023
			l-1.145,1.286h0.841C474.207-62.496,474.495-62.932,474.795-63.377L474.795-63.377z M425.578-62.816
			c0.544,0.768,1.117,1.508,1.729,2.22h1.146l0.233-2.104L425.578-62.816z M438.385-52.534c1.961,0.828,4.022,1.451,6.17,1.846
			l11.545-0.117c0.18-0.038,0.358-0.077,0.537-0.117v-1.332L438.385-52.534z M461.592-52.51l-4.23,0.327l0.141,1.075
			C458.911-51.472,460.271-51.955,461.592-52.51L461.592-52.51z"/>
	</g>
	
		<g id="layer3" transform="translate(0,140)" sodipodi:insensitive="true" inkscape:label="Aldgate Station" inkscape:groupmode="layer">
		<path id="path4068" inkscape:connector-curvature="0" fill="#FFFFFF" d="M320.75-9.969l0.531,9.75L321-0.188l-1.219,2.938
			l-17.344-0.656l-4.531,0.188l-0.938-2.562h-0.188l-0.188-3.906c-0.999,0.529-1.981,1.094-2.938,1.688l0.125,2.375L293.5-0.094
			L292.438,2.5l-5.75,0.219c-1.357,1.213-2.626,2.49-3.844,3.844v5.188l1.375-0.094l0.5-5.312l2.125-0.062l0.812,5.906L288.938,12
			l-0.094-5.75l3.5-0.094l0.281,4.312l-1.281,1.094l0.438,0.781l7.5-0.094v-1.281l-1.188-0.844l0.125-4.094l3.875-0.094l0.438,5.625
			l1.031-0.188V5.906l3-0.062v5.375l1.375-0.094l0.5-5.312l0.719-0.031l1.438,0.062l0.781,5.781l1.281-0.156l-0.094-5.531L315,6.062
			l0.781,5.781l1.281-0.156l-0.094-5.531l2.875,0.156l0.281,4.062l-1.281,1.094l0.438,0.781l7.5-0.094v-1.281l-1.188-0.844
			l0.094-3.438l3.969,0.188l0.375,4.781l1.031-0.188v-4.5l3,0.125v4.219l1.375-0.094l0.406-4.031l2.438,0.125l0.594,4.406
			l1.312-0.156l-0.062-4.156l2.562,0.125l0.594,4.406l1.281-0.156l-0.031-4.156l1.875,0.094h1.125l0.219,3.219l-1.281,1.094
			l0.438,0.781l7.5-0.094v-1.281l-1.188-0.844l0.094-2.875h3.594l0.312,4.094l1.031-0.156V7.781
			c-1.209-1.434-2.514-2.772-3.875-4.062l-1.219,0.062l-0.469-1.594c-1.228-1.062-2.516-2.06-3.844-3l0.062,1.062l-0.281,0.031
			L347.5,3.844L325.719,3l-1.25-3.375h-0.188l-0.469-9.469C322.801-9.92,321.778-9.953,320.75-9.969L320.75-9.969z M279.812,10.281
			c-0.356,0.48-0.723,0.943-1.062,1.438l0.031,0.375l1.031-0.188V10.281L279.812,10.281z M277.812,13.156
			C272.871,20.91,270,30.125,270,40c0,1.92,0.102,3.824,0.312,5.688l4.906-0.188l-0.125-22.812l1.531,3.75l-0.219,19.031
			l3.625-0.125l-0.406-19.438l1.594,3.438c0,0,0.01,12.401-0.062,15.969l10.875-0.375L291.75,23l1.188,6.344l0.312,15.531
			l3.625-0.125l-0.188-16.594l1.188,9.438l-0.094,7.125l6.844-0.219l0.812-11.219l0.969,2.156l-0.531,9l2.188-0.062l-0.094-23.625
			l0.188-5.656l-0.938-1.719l-13.25-0.094l0.938,5.594l-1.344,0.25l-1.5-5.844l-3.188-0.031l-0.438,2l-5.906,0.125l-0.5-2.188
			L277.812,13.156L277.812,13.156z M310.281,13.375l-1,1.906l0.188,29.031l2.875-0.094l0.531-14.375l2.75-6.344l4.969-3.938
			l6.625-0.062l5.312,5.125l2.094,5.719l0.094,14.875l3.406,0.25l-0.531-16.531L336.906,26l1.031,0.188l0.844,1.719l0.312,17.625
			L345.312,46l0.25-2.375l4.312,1.094c0,0-0.581,0.92-1.094,1.531l4.781,0.344l-0.062-4.688L353.406,39l0.844,0.281l0.781,7.438
			l14.375,1.062C369.802,45.248,370,42.645,370,40c0-9.623-2.727-18.623-7.438-26.25h-2.094l-0.312,16.062L359.875,30l-0.656-16.281
			l-8.906-0.062l-4.531,1.25l-0.812,10.281l-0.219,0.094l-0.062-10.125h-6.812l-2.281-1.594L310.281,13.375L310.281,13.375z
			 M284.781,25.375l0.75,1.906l-0.531,1.5l-1.531-0.625L284.781,25.375z M342.5,29.031l1.312,9.844l-0.969,0.344l-1.25-9.969
			L342.5,29.031z M364.969,34l0.75,0.125l0.219,9.062l-0.969,0.781V34z M319.062,43.156l-3.188,0.25l-27.844,35.062
			c0.954,0.793,1.957,1.527,2.969,2.25L319.062,43.156z M329.406,43.375l9.812,42.781c1.672-0.697,3.3-1.477,4.875-2.344l-12.156-40
			L329.406,43.375z M317.938,48.125l-2.125,3.312l12.969-0.094l-0.094-1.062l-5.062-0.344l5.062-0.844v-0.969H317.938
			L317.938,48.125z M313,55.375l-3.75,6.156l22.562,0.156l-0.688-2.031l-14.75-0.781l14.344-0.812l-0.531-2.688H313z
			 M306.438,65.156l-1.625,1.75l22.031,1.75l-21.094,0.125l-1.594,2.562L333,72.281l-0.406-6.188L306.438,65.156z M299.844,77.375
			l-3.469,2.812l27.094,1.75l-28.188,0.156l-0.469,1.094c1.728,1.01,3.523,1.919,5.375,2.719l33.906,0.344l-1.219-7L299.844,77.375z
			"/>
		<path id="path4148" inkscape:connector-curvature="0" fill="#FFFFFF" d="M320.823-109.826l-0.84,2.029l-9.702-0.373
			c-2.071,0.725-4.043,1.659-5.877,2.798l2.379-0.046l0.327,4.198l0.77-0.14v-4.082l2.239-0.046v4.011l1.026-0.07l0.373-3.965
			l0.537-0.023l1.073,0.047l0.583,4.314l0.956-0.116l-0.07-4.128l1.819,0.093l0.583,4.315l0.956-0.117l-0.07-4.128l2.146,0.116
			l0.21,3.032l-0.957,0.816l0.327,0.583l5.598-0.07v-0.957l-0.886-0.629l0.07-2.566l2.962,0.14l0.28,3.568l0.77-0.14v-3.358
			l2.239,0.093v3.149l1.026-0.07l0.303-3.009l1.819,0.093l0.443,3.289l0.979-0.117l-0.047-3.102l1.913,0.093l0.443,3.289
			l0.956-0.117l-0.023-2.449c-1.917-1.491-4.024-2.739-6.273-3.731l-7.767-0.304l-0.747-2.029
			C322.733-109.749,321.783-109.805,320.823-109.826L320.823-109.826z M303.891-105.021c-1.809,1.177-3.481,2.528-4.991,4.058
			l0.187,0.327l5.598-0.07v-0.957l-0.886-0.629L303.891-105.021L303.891-105.021z M340.694-101.616l-0.793,0.676l0.326,0.583
			l1.726-0.023C341.548-100.814,341.125-101.207,340.694-101.616L340.694-101.616z M297.943-99.96
			c-3.178,3.535-5.534,7.842-6.74,12.594c0,0.971,0.004,8.829-0.047,11.335l8.116-0.28l-0.209-16.373l0.886,4.734l0.233,11.591
			l2.706-0.093l-0.14-12.385l0.886,7.043l-0.07,5.318l5.107-0.164l0.606-8.373l0.723,1.609l-0.396,6.717l1.632-0.047l-0.07-17.632
			l0.14-4.222l-0.7-1.283l-9.889-0.07l0.7,4.175l-1.003,0.187l-1.119-4.361L297.943-99.96L297.943-99.96z M312.893-99.867
			l-0.746,1.423l0.14,21.667l2.146-0.07l0.396-10.729l2.052-4.734l3.708-2.938l4.944-0.047l3.965,3.825l1.563,4.268l0.07,11.102
			l2.542,0.187l-0.396-12.338l-0.513-2.192l0.77,0.14l0.629,1.283l0.233,13.154l4.641,0.35l0.187-1.772l3.219,0.816
			c0,0-0.434,0.687-0.816,1.143l3.568,0.257l-0.046-3.499l-0.07-2.169l0.629,0.209l0.583,5.551l3.242,0.233
			c0.302-1.704,0.466-3.457,0.466-5.248c0-7.512-2.79-14.368-7.37-19.615l-3.242,0.887l-0.606,7.673l-0.164,0.07l-0.046-7.557
			h-5.084l-1.703-1.189L312.893-99.867L312.893-99.867z M293.862-90.911l0.56,1.423l-0.396,1.119l-1.143-0.466L293.862-90.911z
			 M336.939-88.182l0.979,7.347l-0.723,0.256l-0.933-7.44L336.939-88.182L336.939-88.182z M319.447-77.641l-2.379,0.187
			L300.952-57.14c0.656,0.551,1.327,1.068,2.029,1.562L319.447-77.641z M327.167-77.477l5.621,24.536
			c1.068-0.5,2.107-1.061,3.102-1.679l-6.833-22.53L327.167-77.477z M318.607-73.932l-1.586,2.472l9.679-0.07l-0.07-0.793
			l-3.778-0.257l3.778-0.629v-0.723H318.607L318.607-73.932z M314.922-68.521l-2.799,4.594l16.839,0.117l-0.513-1.516l-11.008-0.583
			l10.705-0.606l-0.396-2.006H314.922L314.922-68.521z M310.024-61.221l-1.213,1.306l16.443,1.306l-15.743,0.093l-1.189,1.913
			l21.527,0.7l-0.303-4.618L310.024-61.221L310.024-61.221z M310.351-51.799c3.069,1.066,6.364,1.656,9.795,1.656
			c2.26,0,4.461-0.248,6.577-0.723L310.351-51.799L310.351-51.799z"/>
	</g>
	
		<g id="layer1" transform="translate(0,-812.36218)" sodipodi:insensitive="true" inkscape:label="Baker St" inkscape:groupmode="layer">
		<path id="rect4208" inkscape:connector-curvature="0" fill="#FFFFFF" d="M197.844,942.956l-0.188,7.594l1.844-0.188l0.312-7.031
			C199.154,943.2,198.511,943.061,197.844,942.956z M171.156,946.05c-1.947,0.793-3.841,1.697-5.656,2.719l0.281,1.688l0.906,25.219
			l4.25,3.25L171.156,946.05z M209.781,946.425l-0.094,4.125l1.844-0.188l0.125-3.094
			C211.041,946.973,210.411,946.696,209.781,946.425L209.781,946.425z M165.125,948.987c-7.43,4.268-13.633,10.375-18.031,17.719
			l0.156,1.312h-0.938c-4.02,7.202-6.312,15.51-6.312,24.344c0,12.992,4.97,24.828,13.094,33.719v-5.719l0.75,1.156l-0.031,5.312
			c5.462,5.734,12.256,10.178,19.906,12.812l-0.156-23.5l-3.406-0.25l0.25,13.625l-2.625-12.844l-4.719,0.25l-1.312,6.312
			l-8.906-14.438l-5.781-6.531h-1.344l-0.094,5.188l-2.125,2.281l-1.094-18.094l3.031,5.062l1.125-13.312l6.531-5.25l3.406,2.094
			l-0.25-4.469l5.781-3.656l3.094,2.375V948.987L165.125,948.987z M195.562,952.175l-0.094,3.344l28.688,0.656l-16.312-1.594
			l14.719-0.156c-0.722-0.62-1.462-1.233-2.219-1.812L195.562,952.175L195.562,952.175z M184.562,962.331l-2.938,2.844l2.312,5.156
			l2.906,1.531l-1.062,0.781v4.344l0.656,0.688l-0.562,0.875l0.156,2.688h-0.844l-7.312,8.531h1.469l0.469,14.719l-1.188,0.031
			l5.625,3.844h1.312l0.375,2.438l3.938-0.031l0.281-2.406h1.094l6.031-4.094l-1.406,0.031l0.438-14.688h1.812l-8-8.375h-0.562
			l0.188-2.625l-1.125-1.75l-1.469-0.031l-0.344-0.375v-3.344l0.656-0.625l0.906,0.469l-0.125,2.281l0.875,0.5l0.312-2.906
			l-0.625-0.406l5.062-0.781l1.688-3.562l4.812-1l2.469,3.969l0.75,13.125l1.531,1.594l0.906-6.469l0.094,7.531l2-1.938
			l-0.25-14.938l-6.719-7.344l-7.094,3.25l-1.969,3.094l-3.969,1l-2.594-1.562l-0.594-1.938l1.844,0.156l1.094-2.625
			L184.562,962.331L184.562,962.331z M200.25,972.581l-4.406,4.281l2.688,5.094l1.594-0.531L200.25,972.581z M211,972.581
			l0.125,12.188l5.781,0.969l2.688-11.156L211,972.581z M221.375,975.925l-2.781,10.625l5.625,5.312l4.531-8.75L221.375,975.925z
			 M163.25,978.018l-2.969,0.812l14.625,7.969l0.656-1.062L163.25,978.018z M188.094,978.175h0.094l0.312,0.75l-0.219,2.312h-1.344
			l-0.156-2.594l0.25-0.344l0.531,0.562L188.094,978.175L188.094,978.175z M229.938,984.925l-4.969,8.438l1.469,5.5l7.125-5.219
			L229.938,984.925z M151.844,985.362l0.406,2.5l22.438,3.781v-0.625L151.844,985.362z M211.469,988.675l-6.344,1.531l-0.875,7.656
			l-0.344-7.219l-3.438,2.938l0.688,5.156l1.281-0.344l-0.844,1.781l-0.312,6.375l4.125-3.438l0.094-1.375l-1.375-0.469
			l-0.906,0.688l0.125,0.969l-1.094,0.344l-0.344-1.875l2.062-1.281l3.031,0.938l0.344,2.75l-4.469,3.031h3.5l-0.062-0.875h1.031
			l0.125,2.031h-6.25l-0.062,1.031l-5.938,4.312l-0.25,16.781l3.156,0.344l1.406-16l0.219,17.312l4.094,1.406l2.031-18.031v20.719
			l5.719,1.594c0.105-0.051,0.208-0.105,0.312-0.156l1.188-21.906l0.094,21.281c1.708-0.896,3.353-1.889,4.938-2.969l0.812-17.531
			l0.656,16.5c1.608-1.184,3.14-2.48,4.594-3.844v-23.5l-4.719-13.062L211.469,988.675L211.469,988.675z M192.156,989.643h2.656
			l-0.156,14.656l-3,0.031L192.156,989.643L192.156,989.643z M190.625,989.675l-0.156,14.688l-5.969,0.094l-0.156-14.75
			L190.625,989.675z M180.844,989.737h1.969l0.5,14.719l-2.312,0.031L180.844,989.737L180.844,989.737z M188.344,992.612
			l-1.906,0.062l-1.344,1.281l0.125,5.094l1,1.594l2.531-0.062l1-0.812l0.219-5.812L188.344,992.612z M149.344,993.925l2.188,1.969
			l22.281,0.25l0.562-1.5L149.344,993.925z M187.875,996.206l-0.125,3.312l-1-1.625l0.188-1.594L187.875,996.206L187.875,996.206z
			 M231.906,997.268l-4.938,3l-0.094,7.312l6.75-0.531l0.438-8.188L231.906,997.268L231.906,997.268z M211.062,1000.393l1.156,0.094
			l-0.219,7.938l-1.594-0.156l0.531-5.531l-2.406,1.156l0.125-1.188l2.281-1.188L211.062,1000.393L211.062,1000.393z
			 M174.594,1000.487l-18.656,3.75l3.031,1.312l15.656-4.281L174.594,1000.487L174.594,1000.487z M214.656,1000.518l1.438,0.031
			l-0.5,4l2.688-0.781l1.062,2.75l-0.781,2.188l-1.969,0.188l-1.219-1.438l-0.125,1.438l-1.375-0.219L214.656,1000.518
			L214.656,1000.518z M174.75,1004.643l-10.188,5.656l2.156,2.531l9.125-6.844L174.75,1004.643z M217.75,1005.487l-1.188,0.5
			l0.344,1.656l0.969-0.125l0.375-0.938L217.75,1005.487z M231.062,1008.956l-3.969,0.219l0.312,13.438l2.219,0.219
			c0.501-0.65,1-1.294,1.469-1.969l-0.562-0.844l2.031-7.5L231.062,1008.956z M149.781,1015.081l0.844,0.531l0.75,6.562H150
			L149.781,1015.081z M192.062,1021.331l-2.781,5.562l0.219,8.281l2.906,0.969L192.062,1021.331z M227.875,1024.675v0.312
			c0.082-0.095,0.169-0.186,0.25-0.281L227.875,1024.675L227.875,1024.675z"/>
		<path id="path4062" inkscape:connector-curvature="0" fill="#FFFFFF" d="M194.146,842.768l-0.047,1.614l6.832,0.164
			C198.776,843.701,196.509,843.096,194.146,842.768z M175.848,846.021c-1.288,0.692-2.53,1.473-3.697,2.34l0.398,11.114
			l3.182,2.433L175.848,846.021L175.848,846.021z M171.379,848.969c-4.106,3.268-7.326,7.596-9.266,12.565l0.257-0.211l2.551,1.568
			l-0.188-3.346l4.329-2.737l2.316,1.778V848.969L171.379,848.969z M185.933,849.484l-2.199,2.129l1.731,3.861l2.176,1.146
			l-0.795,0.585v3.252l0.491,0.515l-0.421,0.655l0.117,2.012h-0.631l-5.475,6.388h1.1l0.351,11.021l-0.889,0.023l4.211,2.878h0.983
			l0.281,1.825l2.948-0.023l0.211-1.802h0.819l4.516-3.065l-1.053,0.023l0.328-10.997h1.357l-5.99-6.271h-0.421l0.141-1.965
			l-0.842-1.31l-1.1-0.023l-0.258-0.281v-2.503l0.492-0.468l0.678,0.351l-0.093,1.708l0.655,0.375l0.234-2.176l-0.468-0.304
			l3.791-0.585l1.264-2.667l3.603-0.749l1.848,2.972l0.562,9.827l1.146,1.193l0.679-4.843l0.07,5.639l1.498-1.451l-0.188-11.184
			l-5.03-5.499l-5.312,2.433l-1.474,2.316l-2.972,0.749l-1.942-1.17l-0.445-1.451l1.38,0.117l0.819-1.965L185.933,849.484
			L185.933,849.484z M197.678,857.158l-3.299,3.206l2.012,3.813l1.193-0.397L197.678,857.158L197.678,857.158z M205.727,857.158
			l0.094,9.125l4.329,0.725l2.012-8.353L205.727,857.158L205.727,857.158z M213.495,859.661l-2.083,7.955l4.212,3.978l3.393-6.551
			L213.495,859.661z M169.976,861.229l-2.223,0.608l10.95,5.967l0.492-0.796L169.976,861.229z M188.577,861.346h0.07l0.234,0.562
			l-0.164,1.731h-1.006l-0.117-1.942l0.188-0.257l0.397,0.421L188.577,861.346L188.577,861.346z M161.436,866.728l0.304,1.872
			l16.799,2.831v-0.468L161.436,866.728z M219.485,867.125l-3.299,5.592l1.1,4.118l2.55-1.872c0.071-0.84,0.117-1.692,0.117-2.55
			C219.953,870.609,219.791,868.842,219.485,867.125z M206.078,869.208l-4.75,1.146l-0.655,5.732l-0.257-5.405l-2.574,2.199
			l0.515,3.86l0.959-0.257l-0.632,1.334l-0.234,4.773l3.088-2.574l0.07-1.029l-1.03-0.351l-0.678,0.515l0.093,0.726l-0.819,0.257
			l-0.257-1.404l1.544-0.959l2.27,0.702l0.257,2.059l-3.346,2.27h2.621l-0.047-0.655h0.772l0.093,1.521h-4.679l-0.047,0.772
			l-4.446,3.229l-0.187,12.565l2.363,0.257l1.053-11.979l0.164,12.962c1.128-0.282,2.225-0.646,3.299-1.053l1.287-11.395v10.88
			c1.749-0.757,3.426-1.675,4.983-2.738l0.421-7.955l0.023,7.627c1.51-1.072,2.903-2.276,4.188-3.603l0.164-3.439l0.117,3.135
			c1.424-1.512,2.726-3.154,3.814-4.937v-6.317l-3.533-9.78L206.078,869.208L206.078,869.208z M191.618,869.933h1.989l-0.117,10.974
			l-2.246,0.023L191.618,869.933z M190.472,869.956l-0.117,10.997l-4.469,0.07l-0.117-11.044L190.472,869.956L190.472,869.956z
			 M183.148,870.003h1.474l0.374,11.021l-1.731,0.023L183.148,870.003z M188.764,872.156l-1.427,0.046l-1.006,0.959l0.094,3.814
			l0.749,1.193l1.895-0.047l0.749-0.608l0.164-4.352L188.764,872.156z M160.078,873.162c0.004,0.148,0.018,0.297,0.023,0.445
			l1.1,1.006l16.682,0.188l0.421-1.124L160.078,873.162z M188.413,874.847l-0.094,2.48l-0.749-1.217l0.141-1.193L188.413,874.847z
			 M219.625,876.695l-1.942,1.193l-0.07,5.475l0.257-0.023C218.699,881.228,219.294,879.009,219.625,876.695L219.625,876.695z
			 M205.774,877.982l0.866,0.07l-0.164,5.943l-1.193-0.117l0.397-4.142l-1.801,0.866l0.093-0.889l1.708-0.889L205.774,877.982
			L205.774,877.982z M178.469,878.052L164.5,880.86l2.27,0.983l11.722-3.206L178.469,878.052L178.469,878.052z M208.465,878.076
			l1.076,0.023l-0.375,2.995l2.012-0.585l0.795,2.059l-0.585,1.638l-1.474,0.141l-0.913-1.076l-0.094,1.076l-1.029-0.164
			L208.465,878.076L208.465,878.076z M178.586,881.164l-7.627,4.235l1.614,1.896l6.832-5.124L178.586,881.164z M210.781,881.796
			l-0.889,0.375l0.257,1.24l0.725-0.093l0.281-0.702L210.781,881.796z M163.658,886.686c0.512,0.943,1.101,1.859,1.708,2.737
			L163.658,886.686z M175.146,889.587l0.164,8.938c0.795,0.449,1.619,0.841,2.457,1.217l-0.07-9.967L175.146,889.587
			L175.146,889.587z M173.368,890.172l-3.533,0.187l-0.725,3.486c1.781,1.736,3.775,3.263,5.943,4.516L173.368,890.172
			L173.368,890.172z M191.548,893.659l-2.083,4.165l0.117,4.516c0.141,0.002,0.28,0.023,0.421,0.023c0.589,0,1.175-0.037,1.755-0.07
			L191.548,893.659L191.548,893.659z"/>
	</g>
	<g id="layer10" transform="translate(0,140)" sodipodi:insensitive="true" inkscape:label="Sherlock" inkscape:groupmode="layer">
		<g id="g4010" transform="translate(9.9999998,130)">
			<path id="path4358" inkscape:connector-curvature="0" fill="#FFFFFF" d="M50.87-125.324l-15.062,5.189l-6.807,8.256l-1.617,8.738
				l18.803-3.404h-8.424l0.314-1.279l8.762-2.606l0.338-1.159l-4.828,0.387l4.731-2.076l3.283-0.072l0.531-8.135l1.641-2.92
				l-1.4-0.748l-0.097,0.145l-6.638,5.672l-5.19,2.752l-2.92,6.493l-0.797-1.473l3.404-6.469l4.369-1.955L50.87-125.324z"/>
			<path id="path4360" inkscape:connector-curvature="0" fill="#FFFFFF" d="M47.152-106.796l2.592,1.036l2.203-3.758l0.259-11.273
				l1.685-3.629l2.592-0.648l4.666,1.686l1.425,2.98l0.648,8.423l-0.777,4.147l-12.441,3.369l-2.073-0.648"/>
			<path id="path4368" inkscape:connector-curvature="0" fill="#FFFFFF" d="M63.118-123.072l6.22,3.421l2.903,6.946l0.933,6.117
				l-4.666-2.696l-3.939,0.726l0.726-2.281l4.977-1.14l-3.318-2.903l-1.866-0.518l-0.726-4.873"/>
			<path id="path4371" inkscape:connector-curvature="0" fill="#FFFFFF" d="M19.031-92.281l2.333-4.536l5.443-5.313l18.92-3.369
				l-12.959,3.888l14.125-2.722l2.98,1.166l-22.29,5.703l-5.702,4.017l-0.129,1.296l5.702-0.129l-0.129,0.906l-5.702,0.26"/>
			<path id="path4373" inkscape:connector-curvature="0" fill="#FFFFFF" d="M63.61-106.666l5.184-1.426l7.905,4.924l3.499,7.517
				l-4.276-5.961l-7.127-2.98"/>
			<path id="path4375" inkscape:connector-curvature="0" fill="#FFFFFF" d="M48.562-128.629l0.664-1.658l2.488,0.248l-0.166-1.576
				l4.728,4.811l-3.981-0.414"/>
			<path id="path4377" inkscape:connector-curvature="0" fill="#FFFFFF" d="M58.846-126.722l3.4-0.746l0.747,1.243"/>
			<path id="path4379" sodipodi:nodetypes="cccccccc" inkscape:connector-curvature="0" fill="#FFFFFF" d="M15.532-66.887
				l0.858-2.809l4.32-3.149l3.295,0.091l0.899,1.049l-2.842,0.28l-4.419,3.302l-0.717,2.328"/>
			<path id="path4381" inkscape:connector-curvature="0" fill="#FFFFFF" d="M17.605-65.228l1.233-2.401l3.708-2.69l2.691-0.017
				l0.423,2.367l2.773,5.593l-2.868,1.798l-3.816-3.787l2.787,4.164l-0.45,0.492l-4.469-4.995"/>
			<path id="path4383" inkscape:connector-curvature="0" fill="#FFFFFF" d="M26.083-63.584l4.442-0.038l11.813-9.374l0.458,0.732
				l-13.022,11.14l-3.53,0.071"/>
			
				<path id="path4415" sodipodi:nodetypes="ccccccccccccccccccccccccccccccccccccccccccccc" inkscape:connector-curvature="0" fill="#FFFFFF" d="
				M83.494-85.148l-13.932,4.211l-12.219,5.656L46.962-65.79l0.406,1.194l10.788-9.748l12.469-6.188l12.869-4.055V-85.148z
				 M84-83.281L70.719-78.25L58.5-72.594l-7.575,7.331l1.007,0.438l8.497-7.348l11.383-5.672l12.031-4.812L84-83.281z M83.457-80.05
				l-11.55,5.331l-9.728,4.336l-8.272,6.258l1.265-0.164l5.329-3.867l12.469-6.156l10.488-5.144V-80.05z M83.118-77.039
				L72.656-71.75l-12.219,5.656l-5.781,4.938l0.32,0.812l6.242-4.812l12.5-6.188l9.555-5.164L83.118-77.039z M83.86-74.281
				l-10.579,5.844l-9.47,3.563l-7.242,5.655l0.406,1.469l7.648-6.187l9.72-4.095l9.704-5.719L83.86-74.281z"/>
			<path id="path4429" inkscape:connector-curvature="0" fill="#FFFFFF" d="M53.106-71.344l3.023,5.91l0.619,3.367l1.512,2.749
				l0.481-0.481l-1.374-2.68l-0.688-3.161l-2.749-5.841l0,0"/>
			<path id="path4431" inkscape:connector-curvature="0" fill="#FFFFFF" d="M55.253-72.739l3.023,5.91l0.619,3.367l1.512,2.749
				l0.481-0.481l-1.374-2.681l-0.688-3.16l-2.749-5.842l0,0"/>
			<path id="path4433" inkscape:connector-curvature="0" fill="#FFFFFF" d="M57.508-74.672l3.023,5.91l0.619,3.367l1.512,2.748
				l0.481-0.48l-1.374-2.68l-0.688-3.162l-2.749-5.84l0,0"/>
			<path id="path4435" inkscape:connector-curvature="0" fill="#FFFFFF" d="M59.441-76.282l3.024,5.909l0.618,3.367l1.512,2.75
				l0.481-0.482l-1.375-2.68l-0.688-3.16l-2.749-5.842l0,0"/>
			<path id="path4437" inkscape:connector-curvature="0" fill="#FFFFFF" d="M61.803-76.712l3.023,5.909l0.619,3.368l1.512,2.749
				l0.481-0.481l-1.374-2.681l-0.688-3.16l-2.749-5.842l0,0"/>
			<path id="path4439" inkscape:connector-curvature="0" fill="#FFFFFF" d="M64.166-78l3.023,5.91l0.619,3.367l1.512,2.748
				l0.481-0.48l-1.375-2.681l-0.687-3.161l-2.749-5.841l0,0"/>
			<path id="path4441" inkscape:connector-curvature="0" fill="#FFFFFF" d="M66.789-79.17l2.55,6.129l0.352,3.406l1.291,2.858
				l0.517-0.441l-1.159-2.78l-0.437-3.205l-2.281-6.039l0,0"/>
			<path id="path4443" inkscape:connector-curvature="0" fill="#FFFFFF" d="M63.914-54.617l4.429-5.368l10.201-6.308l5.637-4.967
				l-0.134,1.342l-5.234,4.832l-9.261,5.771l-3.624,4.967"/>
			<path id="path4445" inkscape:connector-curvature="0" fill="#FFFFFF" d="M65.407-56.088l7.731,2.234l0.859-1.117l-7.215-2.062"/>
			<path id="path4447" sodipodi:nodetypes="cccc" inkscape:connector-curvature="0" fill="#FFFFFF" d="M67.21-58.406l7.731,2.232
				v-0.344l-6.356-2.834"/>
			<path id="path4449" sodipodi:nodetypes="cccc" inkscape:connector-curvature="0" fill="#FFFFFF" d="M70.475-60.297l7.731,2.234
				l0.086-0.516l-6.442-2.664"/>
			<path id="path4451" sodipodi:nodetypes="cccc" inkscape:connector-curvature="0" fill="#FFFFFF" d="M72.966-62.187l4.553,1.288
				l0.086-0.515l-3.264-1.718"/>
			<path id="path4453" sodipodi:nodetypes="cccc" inkscape:connector-curvature="0" fill="#FFFFFF" d="M75.285-63.475l4.982,0.859
				l0.086-0.516L76.66-64.42"/>
			<path id="path4455" sodipodi:nodetypes="cccc" inkscape:connector-curvature="0" fill="#FFFFFF" d="M77.948-65.193l4.553,1.289
				l0.086-0.516l-3.264-1.718"/>
			<path id="path4457" sodipodi:nodetypes="cccc" inkscape:connector-curvature="0" fill="#FFFFFF" d="M80.353-67.082l4.553,1.288
				l0.086-0.516l-3.264-1.718"/>
			<path id="path4459" inkscape:connector-curvature="0" fill="#FFFFFF" d="M68.38-79.934l3.023,5.91l0.619,3.367l1.512,2.749
				l0.481-0.481l-1.374-2.68l-0.688-3.161l-2.749-5.841l0,0"/>
			<path id="path4461" inkscape:connector-curvature="0" fill="#FFFFFF" d="M70.742-81.222l3.023,5.909l0.619,3.368l1.512,2.749
				l0.481-0.481l-1.374-2.681l-0.688-3.16l-2.749-5.842l0,0"/>
			<path id="path4463" inkscape:connector-curvature="0" fill="#FFFFFF" d="M73.23-82.338l2.685,6.071l0.427,3.397l1.354,2.83
				l0.507-0.453l-1.221-2.754l-0.507-3.195l-2.414-5.987l0,0"/>
			<path id="path4465" inkscape:connector-curvature="0" fill="#FFFFFF" d="M76.312-84.219l-0.844,0.031l1.875,5.438l0.562-0.344
				L76.312-84.219z M77.75-75.094l0.031,0.594l0.469,1.219L77.75-75.094z"/>
			<path id="path4474" inkscape:connector-curvature="0" fill="#FFFFFF" d="M49.184-60.119l4.698,3.858l1.846,6.711l-4.866-3.355
				l-3.858,6.04l-0.671-1.342l2.685-7.886l-3.523,5.536"/>
			<path id="path4476" inkscape:connector-curvature="0" fill="#FFFFFF" d="M43.647-49.382l-3.221-6.175l-2.953,5.102l5.369,3.892
				l-1.879-4.161l3.087,2.148l0.939,0.67"/>
			<path id="path4478" inkscape:connector-curvature="0" fill="#FFFFFF" d="M41.905-59.043l-3.642,6.734l0.687,1.443l2.68-1.512
				l0.137-1.855"/>
		</g>
	</g>
</g>
<g id="Layer_2">
	
		<path id="path4135_1_" sodipodi:cx="190" sodipodi:type="arc" sodipodi:ry="40" sodipodi:rx="40" sodipodi:cy="60" fill="#FF9270" d="
		M230,60c0,22.091-17.909,40-40,40s-40-17.909-40-40s17.909-40,40-40S230,37.909,230,60z"/>
	<path fill="#FFFFFF" d="M213.004,56.471c-0.885-0.968-2.005-1.8-3.298-2.448c-0.203-0.102-0.41-0.199-0.621-0.292
		c-0.86-1.165-1.382-2.585-1.423-4.123h-3.273v-0.904c0.083-0.079,0.158-0.163,0.22-0.251l0.243-0.346
		c0.278-0.396,0.337-0.867,0.162-1.291c-0.219-0.529-0.768-0.907-1.508-1.039l-6.995-1.237l-1.305-0.231
		c-0.185-0.032-0.377-0.049-0.572-0.049c-0.531,0-1.039,0.121-1.456,0.329c-0.235,0.085-0.477,0.23-0.713,0.432l-4.347,3.715
		l-1.575,1.347c-0.132,0.113-0.261,0.244-0.381,0.387c-0.006-0.001-0.011-0.001-0.017-0.001c-0.203,0-0.403,0.018-0.596,0.052
		l-1.89,0.334l-0.036,0.007l-6.835,1.209c-0.765,0.135-1.333,0.525-1.559,1.069c-0.179,0.433-0.118,0.914,0.167,1.32l0.25,0.356
		c0,0.019-0.002,0.037-0.002,0.056v1.191h-3.273c-0.042,1.538-0.562,2.958-1.423,4.123c-0.211,0.092-0.418,0.189-0.622,0.292
		c-1.293,0.647-2.413,1.479-3.298,2.449c-1.374,1.502-2.18,3.333-2.18,5.308c0,3.551,2.606,6.634,6.43,8.188
		c0.112,0.045,0.224,0.089,0.337,0.132c0.396,0.149,0.805,0.283,1.224,0.397c0.778,0.215,1.057,0.262,1.348,0.31
		c0.304-0.316,0.44-0.783,0.44-1.264c0-0.478-0.214-0.851-0.486-1.227c-0.567-0.167-0.71-0.199-1.313-0.407c0.001,0,0.002,0,0.003,0
		c-0.139-0.053-0.277-0.108-0.413-0.166c-0.003-0.002-0.006-0.003-0.009-0.004c-0.133-0.057-0.263-0.117-0.392-0.18
		c-0.01-0.004-0.019-0.009-0.029-0.014c-0.126-0.061-0.25-0.125-0.373-0.191c-0.008-0.005-0.017-0.01-0.025-0.014
		c-0.251-0.138-0.493-0.284-0.724-0.439c-0.002-0.002-0.006-0.004-0.008-0.006c-0.11-0.075-0.218-0.151-0.324-0.23
		c-0.012-0.008-0.024-0.018-0.037-0.026c-0.101-0.077-0.199-0.154-0.295-0.233c-0.014-0.012-0.028-0.024-0.042-0.036
		c-0.095-0.08-0.188-0.16-0.278-0.243c-0.011-0.011-0.021-0.021-0.032-0.031c-0.093-0.087-0.185-0.175-0.272-0.265v-0.001
		c-0.173-0.177-0.333-0.36-0.483-0.55c-0.004-0.005-0.007-0.01-0.012-0.015c-0.048-0.062-0.095-0.123-0.14-0.185c0,0,0,0,0-0.001
		c-0.092-0.126-0.178-0.254-0.26-0.385c-0.006-0.01-0.012-0.019-0.018-0.028c-0.037-0.061-0.073-0.122-0.108-0.184
		c-0.001-0.003-0.004-0.006-0.005-0.009c-0.038-0.067-0.074-0.134-0.109-0.202c-0.003-0.006-0.006-0.012-0.009-0.018
		c-0.03-0.059-0.06-0.118-0.087-0.177c-0.006-0.014-0.013-0.028-0.019-0.041c-0.028-0.062-0.055-0.123-0.081-0.184
		c-0.002-0.005-0.005-0.011-0.007-0.016c-0.028-0.068-0.054-0.136-0.08-0.204c-0.004-0.013-0.008-0.025-0.013-0.038
		c-0.02-0.055-0.039-0.111-0.057-0.166c-0.005-0.018-0.011-0.035-0.017-0.052c-0.02-0.061-0.039-0.123-0.056-0.186
		c-0.001-0.006-0.003-0.012-0.005-0.018c-0.019-0.069-0.036-0.138-0.052-0.208c-0.004-0.017-0.008-0.034-0.011-0.05
		c-0.012-0.054-0.023-0.107-0.033-0.162c-0.005-0.019-0.008-0.039-0.011-0.058c-0.012-0.065-0.022-0.13-0.031-0.195
		c-0.001-0.005-0.001-0.01-0.002-0.015c-0.009-0.07-0.018-0.141-0.024-0.211c-0.001-0.02-0.003-0.04-0.005-0.059
		c-0.004-0.053-0.008-0.106-0.011-0.16c-0.001-0.021-0.002-0.042-0.003-0.062c-0.003-0.071-0.005-0.143-0.005-0.215
		c0-0.352,0.036-0.697,0.104-1.034c0-0.003,0.001-0.007,0.001-0.01c0.064-0.316,0.158-0.626,0.277-0.926
		c0.052-0.131,0.108-0.26,0.17-0.388c0.065-0.134,0.136-0.266,0.212-0.396c0.056-0.098,0.116-0.193,0.177-0.288
		c0.933-1.418,2.495-2.559,4.413-3.213c0.134-0.045,0.27-0.089,0.408-0.13c1.033-0.307,2.158-0.475,3.336-0.475
		c0.394,0,0.781,0.019,1.161,0.055c0.229,0.021,0.457,0.05,0.68,0.085c3.359,0.52,6.042,2.438,6.937,4.911
		c0.09,0.25,0.163,0.504,0.216,0.765c0.001,0.003,0.001,0.007,0.002,0.01c0.068,0.337,0.103,0.683,0.103,1.034
		c0,3.79-4.073,6.862-9.098,6.862c0,0,0,0,0,0c-0.081,0-0.162-0.003-0.244-0.004l0,0c-0.015,0-0.029,0-0.043,0
		c-0.135-0.004-0.27-0.009-0.402-0.016c-0.01-0.001-0.02-0.001-0.029-0.002c-0.146-0.009-0.292-0.02-0.435-0.034
		c-0.008-0.001-0.015-0.002-0.022-0.002c-0.298-0.029-0.593-0.07-0.881-0.12c0,0,0,0,0.001,0c0.212,0.326,0.336,0.718,0.336,1.139
		c0,0.488-0.167,0.936-0.443,1.288c0.567,0.079,1.148,0.127,1.739,0.143c0.142,0.004,0.283,0.007,0.425,0.007
		c6.667,0,12.072-4.146,12.072-9.261c0-1.86-0.716-3.592-1.947-5.043c-0.918-1.082-2.123-2.008-3.532-2.714
		c-0.267-0.134-0.541-0.26-0.823-0.378c-0.775-1.16-1.227-2.545-1.227-4.036h-3.268V55.81c0.122-0.008,0.242-0.021,0.358-0.042
		l2.957-0.523l3.938-0.697l1.866-0.33c0.765-0.135,1.333-0.525,1.558-1.069c0.156-0.376,0.13-0.79-0.066-1.158l3.164-2.704
		l1.615-1.38l4.937,0.875l3.297,0.583c0.007,0.001,0.013,0.002,0.02,0.003v0.243h-3.268c0,1.49-0.452,2.876-1.228,4.036
		c-0.28,0.118-0.555,0.245-0.822,0.378c-0.086,0.043-0.171,0.087-0.256,0.132c-1.299,0.688-2.413,1.566-3.275,2.582
		c-1.231,1.452-1.947,3.184-1.947,5.044c0,0.458,0.044,0.907,0.127,1.347c0.852,4.476,5.875,7.913,11.945,7.913
		c0.143,0,0.284-0.003,0.424-0.007c0.592-0.016,1.173-0.063,1.739-0.142c-0.276-0.352-0.443-0.8-0.443-1.287
		c0-0.422,0.124-0.814,0.336-1.14c-0.661,0.116-1.349,0.176-2.057,0.176l0,0c-5.025,0-9.098-3.072-9.098-6.861
		c0-0.077,0.002-0.152,0.006-0.228c0.012-0.273,0.044-0.542,0.096-0.807c0.001-0.003,0.002-0.007,0.002-0.01
		c0.054-0.261,0.126-0.516,0.216-0.766c0.392-1.081,1.125-2.056,2.106-2.854c1.662-1.351,4.035-2.197,6.671-2.197
		c1.178,0,2.303,0.169,3.336,0.476c0.138,0.041,0.274,0.084,0.408,0.13c2.045,0.698,3.687,1.949,4.59,3.5
		c0.076,0.13,0.146,0.262,0.211,0.396c0.062,0.126,0.118,0.256,0.17,0.387c0.12,0.301,0.213,0.61,0.277,0.927
		c0,0.003,0.001,0.006,0.002,0.01c0.067,0.337,0.103,0.683,0.103,1.035c0,0.072-0.001,0.143-0.005,0.214
		c-0.001,0.021-0.002,0.042-0.003,0.063c-0.003,0.053-0.006,0.106-0.011,0.159c-0.001,0.02-0.003,0.04-0.005,0.059
		c-0.007,0.071-0.015,0.141-0.023,0.211c-0.001,0.005-0.002,0.01-0.003,0.015c-0.009,0.065-0.019,0.131-0.03,0.195
		c-0.003,0.02-0.007,0.039-0.011,0.059c-0.01,0.054-0.021,0.107-0.034,0.161c-0.003,0.017-0.007,0.034-0.011,0.05
		c-0.016,0.069-0.033,0.139-0.052,0.207c-0.002,0.006-0.003,0.013-0.005,0.019c-0.018,0.062-0.036,0.124-0.055,0.186
		c-0.006,0.017-0.011,0.034-0.017,0.051c-0.019,0.057-0.037,0.111-0.058,0.167c-0.004,0.012-0.008,0.024-0.013,0.036
		c-0.025,0.069-0.052,0.137-0.08,0.204c-0.002,0.006-0.005,0.011-0.007,0.017c-0.025,0.061-0.053,0.122-0.081,0.183
		c-0.006,0.013-0.013,0.026-0.02,0.04c-0.028,0.061-0.057,0.119-0.086,0.179c-0.004,0.005-0.006,0.012-0.01,0.018
		c-0.034,0.068-0.071,0.134-0.109,0.202c-0.001,0.002-0.003,0.006-0.005,0.009c-0.035,0.062-0.072,0.123-0.109,0.183
		c-0.005,0.01-0.011,0.02-0.017,0.029c-0.082,0.13-0.168,0.26-0.26,0.385l0,0c-0.045,0.063-0.093,0.125-0.141,0.186
		c-0.004,0.005-0.008,0.01-0.011,0.015c-0.149,0.188-0.311,0.373-0.483,0.55l0,0c-0.847,0.872-1.961,1.587-3.25,2.078
		c-0.603,0.207-0.747,0.24-1.313,0.407c-0.273,0.375-0.486,0.749-0.486,1.226c0,0.482,0.137,0.949,0.44,1.265
		c0.291-0.047,0.569-0.095,1.348-0.309c0.419-0.116,0.828-0.249,1.225-0.398c0.113-0.042,0.226-0.087,0.336-0.132
		c3.824-1.554,6.43-4.637,6.43-8.188C215.185,59.805,214.378,57.975,213.004,56.471z"/>
	
		<path id="path4135_2_" sodipodi:cx="190" sodipodi:type="arc" sodipodi:ry="40" sodipodi:rx="40" sodipodi:cy="60" fill="none" stroke="#FF9270" stroke-width="8" stroke-miterlimit="10" d="
		M222,60c0,17.673-14.327,32-32,32c-17.673,0-32-14.327-32-32c0-17.673,14.327-32,32-32C207.673,28,222,42.327,222,60z"/>
	
		<path id="path4135_4_" sodipodi:cx="190" sodipodi:type="arc" sodipodi:ry="40" sodipodi:rx="40" sodipodi:cy="60" fill="#333333" d="
		M250,179.75c0,33.274-26.975,60.25-60.25,60.25s-60.25-26.976-60.25-60.25c0-33.275,26.975-60.25,60.25-60.25
		S250,146.475,250,179.75z"/>
	<path fill="#FFFFFF" d="M224.4,174.435c-1.333-1.46-3.021-2.713-4.968-3.689c-0.306-0.152-0.617-0.3-0.936-0.438
		c-1.296-1.753-2.082-3.894-2.145-6.211h-4.93v-1.36c0.125-0.118,0.238-0.245,0.331-0.378l0.366-0.521
		c0.418-0.597,0.507-1.306,0.243-1.943c-0.33-0.797-1.157-1.367-2.272-1.564l-10.536-1.864l-1.965-0.349
		c-0.279-0.049-0.569-0.074-0.861-0.074c-0.799,0-1.565,0.184-2.192,0.496c-0.354,0.128-0.718,0.346-1.075,0.652l-6.547,5.595
		l-2.373,2.027c-0.199,0.171-0.393,0.368-0.574,0.584c-0.01-0.002-0.017-0.002-0.026-0.002c-0.306,0-0.607,0.026-0.897,0.078
		l-2.847,0.503l-0.055,0.011l-10.295,1.821c-1.152,0.204-2.008,0.791-2.348,1.61c-0.269,0.651-0.178,1.375,0.25,1.987l0.377,0.538
		c0,0.028-0.004,0.056-0.004,0.083v1.795h-4.93c-0.062,2.316-0.848,4.456-2.144,6.211c-0.318,0.139-0.63,0.284-0.936,0.439
		c-1.947,0.975-3.635,2.228-4.968,3.689c-2.069,2.263-3.284,5.019-3.284,7.994c0,5.35,3.925,9.992,9.685,12.334
		c0.168,0.068,0.337,0.134,0.508,0.198c0.597,0.226,1.212,0.425,1.844,0.6c1.172,0.323,1.592,0.394,2.03,0.466
		c0.458-0.477,0.664-1.178,0.664-1.905c0-0.719-0.322-1.28-0.732-1.847c-0.854-0.25-1.07-0.301-1.979-0.612c0.002,0,0.003,0,0.004,0
		c-0.209-0.08-0.417-0.163-0.621-0.25c-0.005-0.003-0.01-0.006-0.015-0.006c-0.2-0.087-0.396-0.177-0.59-0.272
		c-0.015-0.005-0.028-0.013-0.043-0.02c-0.19-0.094-0.377-0.189-0.561-0.288c-0.013-0.008-0.026-0.015-0.038-0.021
		c-0.379-0.207-0.742-0.428-1.091-0.661c-0.003-0.002-0.008-0.005-0.012-0.008c-0.166-0.114-0.329-0.229-0.487-0.347
		c-0.019-0.015-0.037-0.027-0.056-0.041c-0.152-0.115-0.3-0.23-0.445-0.351c-0.021-0.018-0.042-0.036-0.063-0.053
		c-0.144-0.121-0.284-0.242-0.419-0.367c-0.017-0.016-0.032-0.031-0.048-0.046c-0.14-0.132-0.278-0.265-0.41-0.399v-0.002
		c-0.26-0.266-0.502-0.543-0.728-0.828c-0.006-0.007-0.011-0.015-0.017-0.022c-0.072-0.092-0.143-0.185-0.212-0.277c0,0,0,0,0-0.003
		c-0.138-0.19-0.268-0.382-0.391-0.579c-0.009-0.015-0.018-0.028-0.027-0.044c-0.056-0.092-0.11-0.183-0.164-0.277
		c-0.002-0.003-0.006-0.009-0.008-0.012c-0.056-0.102-0.112-0.202-0.164-0.304c-0.005-0.009-0.009-0.019-0.014-0.027
		c-0.045-0.09-0.09-0.178-0.132-0.266c-0.009-0.021-0.019-0.043-0.029-0.062c-0.042-0.094-0.083-0.185-0.121-0.275
		c-0.004-0.01-0.007-0.019-0.011-0.024c-0.042-0.104-0.082-0.206-0.12-0.308c-0.006-0.02-0.013-0.036-0.021-0.058
		c-0.029-0.081-0.059-0.165-0.085-0.25c-0.008-0.026-0.017-0.051-0.025-0.077c-0.029-0.093-0.058-0.186-0.083-0.281
		c-0.002-0.009-0.005-0.018-0.008-0.026c-0.028-0.103-0.054-0.208-0.078-0.312c-0.006-0.026-0.012-0.05-0.016-0.076
		c-0.019-0.08-0.035-0.163-0.05-0.243c-0.007-0.028-0.013-0.058-0.017-0.087c-0.018-0.101-0.033-0.197-0.047-0.295
		c-0.001-0.009-0.002-0.015-0.002-0.021c-0.015-0.104-0.027-0.214-0.036-0.317c-0.003-0.03-0.005-0.061-0.008-0.09
		c-0.006-0.08-0.012-0.159-0.016-0.241c-0.002-0.029-0.004-0.062-0.005-0.093c-0.004-0.107-0.007-0.217-0.007-0.324
		c0-0.529,0.054-1.048,0.156-1.557c0.001-0.006,0.001-0.011,0.002-0.015c0.098-0.478,0.238-0.945,0.418-1.396
		c0.079-0.198,0.163-0.393,0.256-0.584c0.098-0.203,0.205-0.4,0.32-0.598c0.085-0.146,0.174-0.289,0.267-0.432
		c1.405-2.137,3.757-3.854,6.646-4.84c0.202-0.068,0.407-0.134,0.614-0.197c1.557-0.462,3.251-0.715,5.025-0.715
		c0.592,0,1.175,0.027,1.748,0.082c0.346,0.032,0.688,0.077,1.024,0.13c5.06,0.783,9.101,3.672,10.448,7.396
		c0.136,0.377,0.246,0.76,0.325,1.154c0.001,0.004,0.001,0.009,0.003,0.015c0.103,0.509,0.154,1.027,0.154,1.557
		c0,5.709-6.135,10.337-13.703,10.337c0,0,0,0-0.001,0c-0.122,0-0.244-0.007-0.367-0.007l0,0c-0.022,0-0.044,0-0.065,0
		c-0.203-0.005-0.406-0.014-0.606-0.022c-0.015-0.004-0.03-0.004-0.043-0.004c-0.22-0.014-0.439-0.03-0.655-0.051
		c-0.012-0.002-0.023-0.003-0.034-0.003c-0.45-0.045-0.893-0.104-1.328-0.182c0,0,0,0.002,0.001,0.002
		c0.32,0.49,0.506,1.082,0.506,1.716c0,0.734-0.25,1.409-0.668,1.94c0.854,0.117,1.729,0.19,2.62,0.214
		c0.214,0.006,0.426,0.01,0.641,0.01c10.042,0,18.184-6.245,18.184-13.95c0-2.802-1.079-5.409-2.933-7.597
		c-1.383-1.63-3.197-3.024-5.32-4.087c-0.402-0.202-0.814-0.392-1.239-0.57c-1.167-1.748-1.848-3.833-1.848-6.08h-4.922v-0.383
		c0.183-0.013,0.364-0.031,0.54-0.062l4.454-0.788l5.932-1.051l2.811-0.497c1.152-0.203,2.008-0.791,2.347-1.609
		c0.234-0.567,0.195-1.19-0.101-1.744l4.765-4.074l2.433-2.079l7.436,1.317l4.967,0.877c0.01,0.003,0.019,0.004,0.029,0.005v0.364
		h-4.922c0,2.246-0.681,4.334-1.85,6.08c-0.422,0.178-0.835,0.369-1.239,0.569c-0.129,0.065-0.257,0.133-0.385,0.2
		c-1.958,1.035-3.635,2.359-4.934,3.889c-1.855,2.187-2.933,4.795-2.933,7.599c0,0.688,0.067,1.366,0.192,2.027
		c1.283,6.743,8.849,11.921,17.992,11.921c0.215,0,0.427-0.006,0.639-0.012c0.892-0.023,1.767-0.095,2.62-0.214
		c-0.416-0.53-0.667-1.204-0.667-1.937c0-0.636,0.187-1.228,0.507-1.719c-0.996,0.175-2.032,0.266-3.099,0.266l0,0
		c-7.568,0-13.703-4.627-13.703-10.333c0-0.117,0.003-0.23,0.009-0.344c0.018-0.411,0.066-0.817,0.145-1.215
		c0.003-0.006,0.003-0.012,0.003-0.015c0.081-0.394,0.19-0.778,0.326-1.155c0.59-1.628,1.694-3.097,3.173-4.298
		c2.503-2.034,6.077-3.31,10.048-3.31c1.774,0,3.469,0.255,5.025,0.717c0.208,0.062,0.413,0.126,0.614,0.197
		c3.082,1.05,5.553,2.936,6.915,5.271c0.115,0.195,0.22,0.395,0.318,0.599c0.093,0.189,0.178,0.385,0.257,0.582
		c0.18,0.453,0.321,0.918,0.417,1.397c0,0.003,0.001,0.009,0.003,0.015c0.101,0.508,0.154,1.027,0.154,1.559
		c0,0.107-0.002,0.214-0.008,0.32c-0.002,0.033-0.002,0.066-0.004,0.095c-0.005,0.08-0.01,0.162-0.017,0.242
		c-0.002,0.029-0.004,0.058-0.007,0.088c-0.011,0.105-0.023,0.212-0.036,0.317c-0.002,0.008-0.003,0.016-0.005,0.022
		c-0.013,0.099-0.028,0.197-0.045,0.293c-0.005,0.028-0.011,0.059-0.016,0.089c-0.015,0.082-0.032,0.161-0.051,0.243
		c-0.004,0.026-0.01,0.05-0.016,0.076c-0.024,0.104-0.05,0.209-0.079,0.311c-0.002,0.01-0.005,0.019-0.008,0.028
		c-0.027,0.094-0.055,0.187-0.083,0.281c-0.008,0.024-0.017,0.051-0.025,0.076c-0.028,0.085-0.056,0.168-0.087,0.251
		c-0.006,0.019-0.013,0.038-0.02,0.057c-0.039,0.103-0.078,0.205-0.121,0.305c-0.003,0.01-0.007,0.019-0.01,0.027
		c-0.038,0.091-0.08,0.182-0.122,0.275c-0.009,0.019-0.019,0.039-0.03,0.061c-0.042,0.091-0.085,0.179-0.13,0.269
		c-0.006,0.007-0.009,0.018-0.015,0.027c-0.051,0.101-0.106,0.201-0.165,0.304c-0.002,0.002-0.004,0.009-0.007,0.013
		c-0.053,0.094-0.108,0.185-0.165,0.275c-0.008,0.016-0.017,0.029-0.026,0.044c-0.123,0.196-0.252,0.392-0.392,0.58l0,0
		c-0.068,0.095-0.139,0.188-0.211,0.279c-0.006,0.009-0.012,0.017-0.017,0.023c-0.225,0.284-0.468,0.562-0.727,0.829l0,0
		c-1.276,1.312-2.954,2.391-4.896,3.131c-0.908,0.312-1.125,0.361-1.978,0.611c-0.411,0.565-0.732,1.128-0.732,1.848
		c0,0.727,0.206,1.43,0.663,1.903c0.438-0.07,0.857-0.141,2.031-0.464c0.632-0.174,1.247-0.376,1.844-0.601
		c0.171-0.064,0.34-0.131,0.507-0.199c5.76-2.34,9.685-6.983,9.685-12.331C227.684,179.456,226.47,176.7,224.4,174.435z"/>
	
		<path id="path4135_3_" sodipodi:cx="190" sodipodi:type="arc" sodipodi:ry="40" sodipodi:rx="40" sodipodi:cy="60" fill="none" stroke="#333333" stroke-width="14" stroke-miterlimit="10" d="
		M237.95,179.75c0,26.618-21.58,48.2-48.2,48.2c-26.621,0-48.2-21.582-48.2-48.2c0-26.621,21.579-48.199,48.2-48.199
		C216.37,131.551,237.95,153.129,237.95,179.75z"/>
</g>
</svg>
